<svg version="1.1" xmlns="http://www.w3.org/2000/svg" viewBox="0 0 1008.5942887812843 388.85542747318465" width="2017.1885775625685" height="777.7108549463693">
  <!-- svg-source:excalidraw -->
  
  <defs>
    <style class="style-fonts">
      @font-face {
        font-family: "Virgil";
        src: url("https://excalidraw.com/Virgil.woff2");
      }
      @font-face {
        font-family: "Cascadia";
        src: url("https://excalidraw.com/Cascadia.woff2");
      }
    </style>
  </defs>
  <rect x="0" y="0" width="1008.5942887812843" height="388.85542747318465" fill="#121212"></rect><g stroke-linecap="round" transform="translate(171.1586781191976 26.748063724426515) rotate(0 28.75 28.75)"><path d="M57.5 28.75 C57.5 30.41, 57.35 32.1, 57.06 33.74 C56.77 35.38, 56.34 37.02, 55.77 38.58 C55.2 40.15, 54.48 41.68, 53.65 43.13 C52.82 44.57, 51.84 45.96, 50.77 47.23 C49.7 48.5, 48.5 49.7, 47.23 50.77 C45.96 51.84, 44.57 52.82, 43.13 53.65 C41.68 54.48, 40.15 55.2, 38.58 55.77 C37.02 56.34, 35.38 56.77, 33.74 57.06 C32.1 57.35, 30.41 57.5, 28.75 57.5 C27.09 57.5, 25.4 57.35, 23.76 57.06 C22.12 56.77, 20.48 56.34, 18.92 55.77 C17.35 55.2, 15.82 54.48, 14.38 53.65 C12.93 52.82, 11.54 51.84, 10.27 50.77 C9 49.7, 7.8 48.5, 6.73 47.23 C5.66 45.96, 4.68 44.57, 3.85 43.13 C3.02 41.68, 2.3 40.15, 1.73 38.58 C1.16 37.02, 0.73 35.38, 0.44 33.74 C0.15 32.1, 0 30.41, 0 28.75 C0 27.09, 0.15 25.4, 0.44 23.76 C0.73 22.12, 1.16 20.48, 1.73 18.92 C2.3 17.35, 3.02 15.82, 3.85 14.38 C4.68 12.93, 5.66 11.54, 6.73 10.27 C7.8 9, 9 7.8, 10.27 6.73 C11.54 5.66, 12.93 4.68, 14.37 3.85 C15.82 3.02, 17.35 2.3, 18.92 1.73 C20.48 1.16, 22.12 0.73, 23.76 0.44 C25.4 0.15, 27.09 0, 28.75 0 C30.41 0, 32.1 0.15, 33.74 0.44 C35.38 0.73, 37.02 1.16, 38.58 1.73 C40.15 2.3, 41.68 3.02, 43.12 3.85 C44.57 4.68, 45.96 5.66, 47.23 6.73 C48.5 7.8, 49.7 9, 50.77 10.27 C51.84 11.54, 52.82 12.93, 53.65 14.37 C54.48 15.82, 55.2 17.35, 55.77 18.92 C56.34 20.48, 56.77 22.12, 57.06 23.76 C57.35 25.4, 57.43 27.92, 57.5 28.75 C57.57 29.58, 57.57 27.92, 57.5 28.75" stroke="#fff" stroke-width="2" fill="none"></path></g><g stroke-linecap="round" transform="translate(23.65867811919759 136.74806372442652) rotate(0 28.75 28.74999999999997)"><path d="M57.5 28.75 C57.5 30.41, 57.35 32.1, 57.06 33.74 C56.77 35.38, 56.34 37.02, 55.77 38.58 C55.2 40.15, 54.48 41.68, 53.65 43.13 C52.82 44.57, 51.84 45.96, 50.77 47.23 C49.7 48.5, 48.5 49.7, 47.23 50.77 C45.96 51.84, 44.57 52.82, 43.13 53.65 C41.68 54.48, 40.15 55.2, 38.58 55.77 C37.02 56.34, 35.38 56.77, 33.74 57.06 C32.1 57.35, 30.41 57.5, 28.75 57.5 C27.09 57.5, 25.4 57.35, 23.76 57.06 C22.12 56.77, 20.48 56.34, 18.92 55.77 C17.35 55.2, 15.82 54.48, 14.38 53.65 C12.93 52.82, 11.54 51.84, 10.27 50.77 C9 49.7, 7.8 48.5, 6.73 47.23 C5.66 45.96, 4.68 44.57, 3.85 43.13 C3.02 41.68, 2.3 40.15, 1.73 38.58 C1.16 37.02, 0.73 35.38, 0.44 33.74 C0.15 32.1, 0 30.41, 0 28.75 C0 27.09, 0.15 25.4, 0.44 23.76 C0.73 22.12, 1.16 20.48, 1.73 18.92 C2.3 17.35, 3.02 15.82, 3.85 14.38 C4.68 12.93, 5.66 11.54, 6.73 10.27 C7.8 9, 9 7.8, 10.27 6.73 C11.54 5.66, 12.93 4.68, 14.37 3.85 C15.82 3.02, 17.35 2.3, 18.92 1.73 C20.48 1.16, 22.12 0.73, 23.76 0.44 C25.4 0.15, 27.09 0, 28.75 0 C30.41 0, 32.1 0.15, 33.74 0.44 C35.38 0.73, 37.02 1.16, 38.58 1.73 C40.15 2.3, 41.68 3.02, 43.12 3.85 C44.57 4.68, 45.96 5.66, 47.23 6.73 C48.5 7.8, 49.7 9, 50.77 10.27 C51.84 11.54, 52.82 12.93, 53.65 14.37 C54.48 15.82, 55.2 17.35, 55.77 18.92 C56.34 20.48, 56.77 22.12, 57.06 23.76 C57.35 25.4, 57.43 27.92, 57.5 28.75 C57.57 29.58, 57.57 27.92, 57.5 28.75" stroke="#fff" stroke-width="2" fill="none"></path></g><g stroke-linecap="round" transform="translate(316.1586781191976 134.24806372442652) rotate(0 28.75 28.74999999999997)"><path d="M57.5 28.75 C57.5 30.41, 57.35 32.1, 57.06 33.74 C56.77 35.38, 56.34 37.02, 55.77 38.58 C55.2 40.15, 54.48 41.68, 53.65 43.13 C52.82 44.57, 51.84 45.96, 50.77 47.23 C49.7 48.5, 48.5 49.7, 47.23 50.77 C45.96 51.84, 44.57 52.82, 43.13 53.65 C41.68 54.48, 40.15 55.2, 38.58 55.77 C37.02 56.34, 35.38 56.77, 33.74 57.06 C32.1 57.35, 30.41 57.5, 28.75 57.5 C27.09 57.5, 25.4 57.35, 23.76 57.06 C22.12 56.77, 20.48 56.34, 18.92 55.77 C17.35 55.2, 15.82 54.48, 14.38 53.65 C12.93 52.82, 11.54 51.84, 10.27 50.77 C9 49.7, 7.8 48.5, 6.73 47.23 C5.66 45.96, 4.68 44.57, 3.85 43.13 C3.02 41.68, 2.3 40.15, 1.73 38.58 C1.16 37.02, 0.73 35.38, 0.44 33.74 C0.15 32.1, 0 30.41, 0 28.75 C0 27.09, 0.15 25.4, 0.44 23.76 C0.73 22.12, 1.16 20.48, 1.73 18.92 C2.3 17.35, 3.02 15.82, 3.85 14.38 C4.68 12.93, 5.66 11.54, 6.73 10.27 C7.8 9, 9 7.8, 10.27 6.73 C11.54 5.66, 12.93 4.68, 14.37 3.85 C15.82 3.02, 17.35 2.3, 18.92 1.73 C20.48 1.16, 22.12 0.73, 23.76 0.44 C25.4 0.15, 27.09 0, 28.75 0 C30.41 0, 32.1 0.15, 33.74 0.44 C35.38 0.73, 37.02 1.16, 38.58 1.73 C40.15 2.3, 41.68 3.02, 43.12 3.85 C44.57 4.68, 45.96 5.66, 47.23 6.73 C48.5 7.8, 49.7 9, 50.77 10.27 C51.84 11.54, 52.82 12.93, 53.65 14.37 C54.48 15.82, 55.2 17.35, 55.77 18.92 C56.34 20.48, 56.77 22.12, 57.06 23.76 C57.35 25.4, 57.43 27.92, 57.5 28.75 C57.57 29.58, 57.57 27.92, 57.5 28.75" stroke="#fff" stroke-width="2" fill="none"></path></g><g stroke-linecap="round" transform="translate(266.1586781191976 309.2480637244266) rotate(0 28.75 28.75)"><path d="M57.5 28.75 C57.5 30.41, 57.35 32.1, 57.06 33.74 C56.77 35.38, 56.34 37.02, 55.77 38.58 C55.2 40.15, 54.48 41.68, 53.65 43.13 C52.82 44.57, 51.84 45.96, 50.77 47.23 C49.7 48.5, 48.5 49.7, 47.23 50.77 C45.96 51.84, 44.57 52.82, 43.13 53.65 C41.68 54.48, 40.15 55.2, 38.58 55.77 C37.02 56.34, 35.38 56.77, 33.74 57.06 C32.1 57.35, 30.41 57.5, 28.75 57.5 C27.09 57.5, 25.4 57.35, 23.76 57.06 C22.12 56.77, 20.48 56.34, 18.92 55.77 C17.35 55.2, 15.82 54.48, 14.38 53.65 C12.93 52.82, 11.54 51.84, 10.27 50.77 C9 49.7, 7.8 48.5, 6.73 47.23 C5.66 45.96, 4.68 44.57, 3.85 43.13 C3.02 41.68, 2.3 40.15, 1.73 38.58 C1.16 37.02, 0.73 35.38, 0.44 33.74 C0.15 32.1, 0 30.41, 0 28.75 C0 27.09, 0.15 25.4, 0.44 23.76 C0.73 22.12, 1.16 20.48, 1.73 18.92 C2.3 17.35, 3.02 15.82, 3.85 14.38 C4.68 12.93, 5.66 11.54, 6.73 10.27 C7.8 9, 9 7.8, 10.27 6.73 C11.54 5.66, 12.93 4.68, 14.37 3.85 C15.82 3.02, 17.35 2.3, 18.92 1.73 C20.48 1.16, 22.12 0.73, 23.76 0.44 C25.4 0.15, 27.09 0, 28.75 0 C30.41 0, 32.1 0.15, 33.74 0.44 C35.38 0.73, 37.02 1.16, 38.58 1.73 C40.15 2.3, 41.68 3.02, 43.12 3.85 C44.57 4.68, 45.96 5.66, 47.23 6.73 C48.5 7.8, 49.7 9, 50.77 10.27 C51.84 11.54, 52.82 12.93, 53.65 14.37 C54.48 15.82, 55.2 17.35, 55.77 18.92 C56.34 20.48, 56.77 22.12, 57.06 23.76 C57.35 25.4, 57.43 27.92, 57.5 28.75 C57.57 29.58, 57.57 27.92, 57.5 28.75" stroke="#fff" stroke-width="2" fill="none"></path></g><g stroke-linecap="round" transform="translate(77.40867811919759 310.4980637244266) rotate(0 28.75 28.75)"><path d="M57.5 28.75 C57.5 30.41, 57.35 32.1, 57.06 33.74 C56.77 35.38, 56.34 37.02, 55.77 38.58 C55.2 40.15, 54.48 41.68, 53.65 43.13 C52.82 44.57, 51.84 45.96, 50.77 47.23 C49.7 48.5, 48.5 49.7, 47.23 50.77 C45.96 51.84, 44.57 52.82, 43.13 53.65 C41.68 54.48, 40.15 55.2, 38.58 55.77 C37.02 56.34, 35.38 56.77, 33.74 57.06 C32.1 57.35, 30.41 57.5, 28.75 57.5 C27.09 57.5, 25.4 57.35, 23.76 57.06 C22.12 56.77, 20.48 56.34, 18.92 55.77 C17.35 55.2, 15.82 54.48, 14.38 53.65 C12.93 52.82, 11.54 51.84, 10.27 50.77 C9 49.7, 7.8 48.5, 6.73 47.23 C5.66 45.96, 4.68 44.57, 3.85 43.13 C3.02 41.68, 2.3 40.15, 1.73 38.58 C1.16 37.02, 0.73 35.38, 0.44 33.74 C0.15 32.1, 0 30.41, 0 28.75 C0 27.09, 0.15 25.4, 0.44 23.76 C0.73 22.12, 1.16 20.48, 1.73 18.92 C2.3 17.35, 3.02 15.82, 3.85 14.38 C4.68 12.93, 5.66 11.54, 6.73 10.27 C7.8 9, 9 7.8, 10.27 6.73 C11.54 5.66, 12.93 4.68, 14.37 3.85 C15.82 3.02, 17.35 2.3, 18.92 1.73 C20.48 1.16, 22.12 0.73, 23.76 0.44 C25.4 0.15, 27.09 0, 28.75 0 C30.41 0, 32.1 0.15, 33.74 0.44 C35.38 0.73, 37.02 1.16, 38.58 1.73 C40.15 2.3, 41.68 3.02, 43.12 3.85 C44.57 4.68, 45.96 5.66, 47.23 6.73 C48.5 7.8, 49.7 9, 50.77 10.27 C51.84 11.54, 52.82 12.93, 53.65 14.37 C54.48 15.82, 55.2 17.35, 55.77 18.92 C56.34 20.48, 56.77 22.12, 57.06 23.76 C57.35 25.4, 57.43 27.92, 57.5 28.75 C57.57 29.58, 57.57 27.92, 57.5 28.75" stroke="#fff" stroke-width="2" fill="none"></path></g><g stroke-linecap="round"><g transform="translate(228.74247137532927 73.86482572637118) rotate(0 45.37276277684805 33.35648742150562)"><path d="M0 0 C15.12 11.12, 75.62 55.59, 90.75 66.71 M0 0 C15.12 11.12, 75.62 55.59, 90.75 66.71" stroke="#fff" stroke-width="2" fill="none"></path></g></g><mask></mask><g stroke-linecap="round"><g transform="translate(337.8839153399389 196.28629310105094) rotate(0 -16.127173652983686 54.72828510449733)"><path d="M0 0 C-5.38 18.24, -26.88 91.21, -32.25 109.46 M0 0 C-5.38 18.24, -26.88 91.21, -32.25 109.46" stroke="#fff" stroke-width="2" fill="none"></path></g></g><mask></mask><g stroke-linecap="round"><g transform="translate(171.80472122277672 73.09357848796367) rotate(0 -46.555300144392504 36.0562529303177)"><path d="M0 0 C-15.52 12.02, -77.59 60.09, -93.11 72.11 M0 0 C-15.52 12.02, -77.59 60.09, -93.11 72.11" stroke="#fff" stroke-width="2" fill="none"></path></g></g><mask></mask><g stroke-linecap="round"><g transform="translate(61.106519934455264 197.8699937422478) rotate(0 16.498481430843924 55.12873091632707)"><path d="M0 0 C5.5 18.38, 27.5 91.88, 33 110.26 M0 0 C5.5 18.38, 27.5 91.88, 33 110.26" stroke="#fff" stroke-width="2" fill="none"></path></g></g><mask></mask><g stroke-linecap="round"><g transform="translate(137.4086781191976 342.9980637244266) rotate(0 63.039127853782816 -0.814370048167234)"><path d="M0 0 C21.01 -0.27, 105.07 -1.36, 126.08 -1.63 M0 0 C21.01 -0.27, 105.07 -1.36, 126.08 -1.63" stroke="#fff" stroke-width="2" fill="none"></path></g></g><mask></mask><g stroke-linecap="round"><g transform="translate(86.70647132775912 167.29419675622427) rotate(0 112.78529895006614 -1.2179945080416132)"><path d="M0 0 C37.6 -0.41, 187.98 -2.03, 225.57 -2.44 M0 0 C37.6 -0.41, 187.98 -2.03, 225.57 -2.44" stroke="#fff" stroke-width="2" fill="none"></path></g></g><mask></mask><g stroke-linecap="round"><g transform="translate(189.32369043828453 88.51526969726598) rotate(0 -36.34706412190559 109.48339466390809)"><path d="M0 0 C-12.12 36.49, -60.58 182.47, -72.69 218.97 M0 0 C-12.12 36.49, -60.58 182.47, -72.69 218.97" stroke="#fff" stroke-width="2" fill="none"></path></g></g><mask></mask><g stroke-linecap="round"><g transform="translate(208.4509052693013 88.12620524369271) rotate(0 36.66857711183343 109.07545897442407)"><path d="M0 0 C12.22 36.36, 61.11 181.79, 73.34 218.15 M0 0 C12.22 36.36, 61.11 181.79, 73.34 218.15" stroke="#fff" stroke-width="2" fill="none"></path></g></g><mask></mask><g stroke-linecap="round"><g transform="translate(134.54446299143 320.71094862802425) rotate(0 92.80861294183461 -67.71095935543173)"><path d="M0 0 C30.94 -22.57, 154.68 -112.85, 185.62 -135.42 M0 0 C30.94 -22.57, 154.68 -112.85, 185.62 -135.42" stroke="#fff" stroke-width="2" fill="none"></path></g></g><mask></mask><g stroke-linecap="round"><g transform="translate(77.41397857788468 187.55241946318455) rotate(0 94.59452561341959 65.58605821043136)"><path d="M0 0 C31.53 21.86, 157.66 109.31, 189.19 131.17 M0 0 C31.53 21.86, 157.66 109.31, 189.19 131.17" stroke="#fff" stroke-width="2" fill="none"></path></g></g><mask></mask><g stroke-linecap="round" transform="translate(785.8590702310229 37.60542747318465) rotate(0 28.75 28.75)"><path d="M57.5 28.75 C57.5 30.41, 57.35 32.1, 57.06 33.74 C56.77 35.38, 56.34 37.02, 55.77 38.58 C55.2 40.15, 54.48 41.68, 53.65 43.13 C52.82 44.57, 51.84 45.96, 50.77 47.23 C49.7 48.5, 48.5 49.7, 47.23 50.77 C45.96 51.84, 44.57 52.82, 43.13 53.65 C41.68 54.48, 40.15 55.2, 38.58 55.77 C37.02 56.34, 35.38 56.77, 33.74 57.06 C32.1 57.35, 30.41 57.5, 28.75 57.5 C27.09 57.5, 25.4 57.35, 23.76 57.06 C22.12 56.77, 20.48 56.34, 18.92 55.77 C17.35 55.2, 15.82 54.48, 14.38 53.65 C12.93 52.82, 11.54 51.84, 10.27 50.77 C9 49.7, 7.8 48.5, 6.73 47.23 C5.66 45.96, 4.68 44.57, 3.85 43.13 C3.02 41.68, 2.3 40.15, 1.73 38.58 C1.16 37.02, 0.73 35.38, 0.44 33.74 C0.15 32.1, 0 30.41, 0 28.75 C0 27.09, 0.15 25.4, 0.44 23.76 C0.73 22.12, 1.16 20.48, 1.73 18.92 C2.3 17.35, 3.02 15.82, 3.85 14.38 C4.68 12.93, 5.66 11.54, 6.73 10.27 C7.8 9, 9 7.8, 10.27 6.73 C11.54 5.66, 12.93 4.68, 14.37 3.85 C15.82 3.02, 17.35 2.3, 18.92 1.73 C20.48 1.16, 22.12 0.73, 23.76 0.44 C25.4 0.15, 27.09 0, 28.75 0 C30.41 0, 32.1 0.15, 33.74 0.44 C35.38 0.73, 37.02 1.16, 38.58 1.73 C40.15 2.3, 41.68 3.02, 43.12 3.85 C44.57 4.68, 45.96 5.66, 47.23 6.73 C48.5 7.8, 49.7 9, 50.77 10.27 C51.84 11.54, 52.82 12.93, 53.65 14.37 C54.48 15.82, 55.2 17.35, 55.77 18.92 C56.34 20.48, 56.77 22.12, 57.06 23.76 C57.35 25.4, 57.43 27.92, 57.5 28.75 C57.57 29.58, 57.57 27.92, 57.5 28.75" stroke="#fff" stroke-width="1" fill="none"></path></g><g stroke-linecap="round" transform="translate(638.3590702310229 147.60542747318465) rotate(0 28.75 28.75)"><path d="M57.5 28.75 C57.5 30.41, 57.35 32.1, 57.06 33.74 C56.77 35.38, 56.34 37.02, 55.77 38.58 C55.2 40.15, 54.48 41.68, 53.65 43.13 C52.82 44.57, 51.84 45.96, 50.77 47.23 C49.7 48.5, 48.5 49.7, 47.23 50.77 C45.96 51.84, 44.57 52.82, 43.13 53.65 C41.68 54.48, 40.15 55.2, 38.58 55.77 C37.02 56.34, 35.38 56.77, 33.74 57.06 C32.1 57.35, 30.41 57.5, 28.75 57.5 C27.09 57.5, 25.4 57.35, 23.76 57.06 C22.12 56.77, 20.48 56.34, 18.92 55.77 C17.35 55.2, 15.82 54.48, 14.38 53.65 C12.93 52.82, 11.54 51.84, 10.27 50.77 C9 49.7, 7.8 48.5, 6.73 47.23 C5.66 45.96, 4.68 44.57, 3.85 43.13 C3.02 41.68, 2.3 40.15, 1.73 38.58 C1.16 37.02, 0.73 35.38, 0.44 33.74 C0.15 32.1, 0 30.41, 0 28.75 C0 27.09, 0.15 25.4, 0.44 23.76 C0.73 22.12, 1.16 20.48, 1.73 18.92 C2.3 17.35, 3.02 15.82, 3.85 14.38 C4.68 12.93, 5.66 11.54, 6.73 10.27 C7.8 9, 9 7.8, 10.27 6.73 C11.54 5.66, 12.93 4.68, 14.37 3.85 C15.82 3.02, 17.35 2.3, 18.92 1.73 C20.48 1.16, 22.12 0.73, 23.76 0.44 C25.4 0.15, 27.09 0, 28.75 0 C30.41 0, 32.1 0.15, 33.74 0.44 C35.38 0.73, 37.02 1.16, 38.58 1.73 C40.15 2.3, 41.68 3.02, 43.12 3.85 C44.57 4.68, 45.96 5.66, 47.23 6.73 C48.5 7.8, 49.7 9, 50.77 10.27 C51.84 11.54, 52.82 12.93, 53.65 14.37 C54.48 15.82, 55.2 17.35, 55.77 18.92 C56.34 20.48, 56.77 22.12, 57.06 23.76 C57.35 25.4, 57.43 27.92, 57.5 28.75 C57.57 29.58, 57.57 27.92, 57.5 28.75" stroke="#fff" stroke-width="1" fill="none"></path></g><g stroke-linecap="round" transform="translate(930.8590702310229 145.10542747318465) rotate(0 28.75 28.75)"><path d="M57.5 28.75 C57.5 30.41, 57.35 32.1, 57.06 33.74 C56.77 35.38, 56.34 37.02, 55.77 38.58 C55.2 40.15, 54.48 41.68, 53.65 43.13 C52.82 44.57, 51.84 45.96, 50.77 47.23 C49.7 48.5, 48.5 49.7, 47.23 50.77 C45.96 51.84, 44.57 52.82, 43.13 53.65 C41.68 54.48, 40.15 55.2, 38.58 55.77 C37.02 56.34, 35.38 56.77, 33.74 57.06 C32.1 57.35, 30.41 57.5, 28.75 57.5 C27.09 57.5, 25.4 57.35, 23.76 57.06 C22.12 56.77, 20.48 56.34, 18.92 55.77 C17.35 55.2, 15.82 54.48, 14.38 53.65 C12.93 52.82, 11.54 51.84, 10.27 50.77 C9 49.7, 7.8 48.5, 6.73 47.23 C5.66 45.96, 4.68 44.57, 3.85 43.13 C3.02 41.68, 2.3 40.15, 1.73 38.58 C1.16 37.02, 0.73 35.38, 0.44 33.74 C0.15 32.1, 0 30.41, 0 28.75 C0 27.09, 0.15 25.4, 0.44 23.76 C0.73 22.12, 1.16 20.48, 1.73 18.92 C2.3 17.35, 3.02 15.82, 3.85 14.38 C4.68 12.93, 5.66 11.54, 6.73 10.27 C7.8 9, 9 7.8, 10.27 6.73 C11.54 5.66, 12.93 4.68, 14.37 3.85 C15.82 3.02, 17.35 2.3, 18.92 1.73 C20.48 1.16, 22.12 0.73, 23.76 0.44 C25.4 0.15, 27.09 0, 28.75 0 C30.41 0, 32.1 0.15, 33.74 0.44 C35.38 0.73, 37.02 1.16, 38.58 1.73 C40.15 2.3, 41.68 3.02, 43.12 3.85 C44.57 4.68, 45.96 5.66, 47.23 6.73 C48.5 7.8, 49.7 9, 50.77 10.27 C51.84 11.54, 52.82 12.93, 53.65 14.37 C54.48 15.82, 55.2 17.35, 55.77 18.92 C56.34 20.48, 56.77 22.12, 57.06 23.76 C57.35 25.4, 57.43 27.92, 57.5 28.75 C57.57 29.58, 57.57 27.92, 57.5 28.75" stroke="none" stroke-width="0" fill="#12b886"></path><path d="M57.5 28.75 C57.5 30.41, 57.35 32.1, 57.06 33.74 C56.77 35.38, 56.34 37.02, 55.77 38.58 C55.2 40.15, 54.48 41.68, 53.65 43.13 C52.82 44.57, 51.84 45.96, 50.77 47.23 C49.7 48.5, 48.5 49.7, 47.23 50.77 C45.96 51.84, 44.57 52.82, 43.13 53.65 C41.68 54.48, 40.15 55.2, 38.58 55.77 C37.02 56.34, 35.38 56.77, 33.74 57.06 C32.1 57.35, 30.41 57.5, 28.75 57.5 C27.09 57.5, 25.4 57.35, 23.76 57.06 C22.12 56.77, 20.48 56.34, 18.92 55.77 C17.35 55.2, 15.82 54.48, 14.38 53.65 C12.93 52.82, 11.54 51.84, 10.27 50.77 C9 49.7, 7.8 48.5, 6.73 47.23 C5.66 45.96, 4.68 44.57, 3.85 43.13 C3.02 41.68, 2.3 40.15, 1.73 38.58 C1.16 37.02, 0.73 35.38, 0.44 33.74 C0.15 32.1, 0 30.41, 0 28.75 C0 27.09, 0.15 25.4, 0.44 23.76 C0.73 22.12, 1.16 20.48, 1.73 18.92 C2.3 17.35, 3.02 15.82, 3.85 14.38 C4.68 12.93, 5.66 11.54, 6.73 10.27 C7.8 9, 9 7.8, 10.27 6.73 C11.54 5.66, 12.93 4.68, 14.37 3.85 C15.82 3.02, 17.35 2.3, 18.92 1.73 C20.48 1.16, 22.12 0.73, 23.76 0.44 C25.4 0.15, 27.09 0, 28.75 0 C30.41 0, 32.1 0.15, 33.74 0.44 C35.38 0.73, 37.02 1.16, 38.58 1.73 C40.15 2.3, 41.68 3.02, 43.12 3.85 C44.57 4.68, 45.96 5.66, 47.23 6.73 C48.5 7.8, 49.7 9, 50.77 10.27 C51.84 11.54, 52.82 12.93, 53.65 14.37 C54.48 15.82, 55.2 17.35, 55.77 18.92 C56.34 20.48, 56.77 22.12, 57.06 23.76 C57.35 25.4, 57.43 27.92, 57.5 28.75 C57.57 29.58, 57.57 27.92, 57.5 28.75" stroke="#333" stroke-width="1" fill="none"></path></g><g stroke-linecap="round" transform="translate(880.8590702310229 320.10542747318465) rotate(0 28.75 28.75)"><path d="M57.5 28.75 C57.5 30.41, 57.35 32.1, 57.06 33.74 C56.77 35.38, 56.34 37.02, 55.77 38.58 C55.2 40.15, 54.48 41.68, 53.65 43.13 C52.82 44.57, 51.84 45.96, 50.77 47.23 C49.7 48.5, 48.5 49.7, 47.23 50.77 C45.96 51.84, 44.57 52.82, 43.13 53.65 C41.68 54.48, 40.15 55.2, 38.58 55.77 C37.02 56.34, 35.38 56.77, 33.74 57.06 C32.1 57.35, 30.41 57.5, 28.75 57.5 C27.09 57.5, 25.4 57.35, 23.76 57.06 C22.12 56.77, 20.48 56.34, 18.92 55.77 C17.35 55.2, 15.82 54.48, 14.38 53.65 C12.93 52.82, 11.54 51.84, 10.27 50.77 C9 49.7, 7.8 48.5, 6.73 47.23 C5.66 45.96, 4.68 44.57, 3.85 43.13 C3.02 41.68, 2.3 40.15, 1.73 38.58 C1.16 37.02, 0.73 35.38, 0.44 33.74 C0.15 32.1, 0 30.41, 0 28.75 C0 27.09, 0.15 25.4, 0.44 23.76 C0.73 22.12, 1.16 20.48, 1.73 18.92 C2.3 17.35, 3.02 15.82, 3.85 14.38 C4.68 12.93, 5.66 11.54, 6.73 10.27 C7.8 9, 9 7.8, 10.27 6.73 C11.54 5.66, 12.93 4.68, 14.37 3.85 C15.82 3.02, 17.35 2.3, 18.92 1.73 C20.48 1.16, 22.12 0.73, 23.76 0.44 C25.4 0.15, 27.09 0, 28.75 0 C30.41 0, 32.1 0.15, 33.74 0.44 C35.38 0.73, 37.02 1.16, 38.58 1.73 C40.15 2.3, 41.68 3.02, 43.12 3.85 C44.57 4.68, 45.96 5.66, 47.23 6.73 C48.5 7.8, 49.7 9, 50.77 10.27 C51.84 11.54, 52.82 12.93, 53.65 14.37 C54.48 15.82, 55.2 17.35, 55.77 18.92 C56.34 20.48, 56.77 22.12, 57.06 23.76 C57.35 25.4, 57.43 27.92, 57.5 28.75 C57.57 29.58, 57.57 27.92, 57.5 28.75" stroke="#fff" stroke-width="1" fill="none"></path></g><g stroke-linecap="round" transform="translate(692.1090702310229 321.35542747318465) rotate(0 28.75 28.75)"><path d="M57.5 28.75 C57.5 30.41, 57.35 32.1, 57.06 33.74 C56.77 35.38, 56.34 37.02, 55.77 38.58 C55.2 40.15, 54.48 41.68, 53.65 43.13 C52.82 44.57, 51.84 45.96, 50.77 47.23 C49.7 48.5, 48.5 49.7, 47.23 50.77 C45.96 51.84, 44.57 52.82, 43.13 53.65 C41.68 54.48, 40.15 55.2, 38.58 55.77 C37.02 56.34, 35.38 56.77, 33.74 57.06 C32.1 57.35, 30.41 57.5, 28.75 57.5 C27.09 57.5, 25.4 57.35, 23.76 57.06 C22.12 56.77, 20.48 56.34, 18.92 55.77 C17.35 55.2, 15.82 54.48, 14.38 53.65 C12.93 52.82, 11.54 51.84, 10.27 50.77 C9 49.7, 7.8 48.5, 6.73 47.23 C5.66 45.96, 4.68 44.57, 3.85 43.13 C3.02 41.68, 2.3 40.15, 1.73 38.58 C1.16 37.02, 0.73 35.38, 0.44 33.74 C0.15 32.1, 0 30.41, 0 28.75 C0 27.09, 0.15 25.4, 0.44 23.76 C0.73 22.12, 1.16 20.48, 1.73 18.92 C2.3 17.35, 3.02 15.82, 3.85 14.38 C4.68 12.93, 5.66 11.54, 6.73 10.27 C7.8 9, 9 7.8, 10.27 6.73 C11.54 5.66, 12.93 4.68, 14.37 3.85 C15.82 3.02, 17.35 2.3, 18.92 1.73 C20.48 1.16, 22.12 0.73, 23.76 0.44 C25.4 0.15, 27.09 0, 28.75 0 C30.41 0, 32.1 0.15, 33.74 0.44 C35.38 0.73, 37.02 1.16, 38.58 1.73 C40.15 2.3, 41.68 3.02, 43.12 3.85 C44.57 4.68, 45.96 5.66, 47.23 6.73 C48.5 7.8, 49.7 9, 50.77 10.27 C51.84 11.54, 52.82 12.93, 53.65 14.37 C54.48 15.82, 55.2 17.35, 55.77 18.92 C56.34 20.48, 56.77 22.12, 57.06 23.76 C57.35 25.4, 57.43 27.92, 57.5 28.75 C57.57 29.58, 57.57 27.92, 57.5 28.75" stroke="#fff" stroke-width="1" fill="none"></path></g><g stroke-linecap="round"><g transform="translate(953.2618686177678 208.3826386298818) rotate(0 -15.511839776094916 53.465496429899474)"><path d="M0 0 C-5.17 17.82, -25.85 89.11, -31.02 106.93 M0 0 C-5.17 17.82, -25.85 89.11, -31.02 106.93" stroke="#ccc" stroke-width="1" fill="none"></path></g></g><mask></mask><g stroke-linecap="round"><g transform="translate(676.4021643519653 210.41008443605273) rotate(0 16.048053067809974 52.79683840277613)"><path d="M0 0 C5.35 17.6, 26.75 87.99, 32.1 105.59 M0 0 C5.35 17.6, 26.75 87.99, 32.1 105.59" stroke="#ccc" stroke-width="1" fill="none"></path></g></g><mask></mask><g stroke-linecap="round"><g transform="translate(701.3256417980889 177.94936978089714) rotate(0 112.22925047606407 -0.4467726381246848)"><path d="M0 0 C37.41 -0.15, 187.05 -0.74, 224.46 -0.89 M0 0 C37.41 -0.15, 187.05 -0.74, 224.46 -0.89" stroke="#ccc" stroke-width="1" fill="none"></path></g></g><mask></mask><g stroke-linecap="round"><g transform="translate(804.0244023203521 98.37862764843032) rotate(0 -34.299351422516565 110.883732508149)"><path d="M0 0 C-11.43 36.96, -57.17 184.81, -68.6 221.77 M0 0 C-11.43 36.96, -57.17 184.81, -68.6 221.77" stroke="#ccc" stroke-width="1" fill="none"></path></g></g><mask></mask><g stroke-linecap="round"><g transform="translate(824.8482860789715 99.07077033747379) rotate(0 35.74298615753867 108.47718483995146)"><path d="M0 0 C11.91 36.16, 59.57 180.8, 71.49 216.95 M0 0 C11.91 36.16, 59.57 180.8, 71.49 216.95" stroke="#ccc" stroke-width="1" fill="none"></path></g></g><mask></mask><g stroke-linecap="round"><g transform="translate(750.4866028959226 332.9644292538274) rotate(0 92.78305530523403 -68.22223999553876)"><path d="M0 0 C30.93 -22.74, 154.64 -113.7, 185.57 -136.44 M0 0 C30.93 -22.74, 154.64 -113.7, 185.57 -136.44" stroke="#ccc" stroke-width="1" fill="none"></path></g></g><mask></mask><g transform="translate(94.62695827950176 327.33517634753395) rotate(0 11.71875 12)"><text x="11.71875" y="0" font-family="Cascadia, Segoe UI Emoji" font-size="20px" fill="#fff" text-anchor="middle" style="white-space: pre;" direction="ltr" dominant-baseline="text-before-edge">60</text></g><g transform="translate(283.60378833279685 324.69330137761466) rotate(0 11.71875 12)"><text x="11.71875" y="0" font-family="Cascadia, Segoe UI Emoji" font-size="20px" fill="#fff" text-anchor="middle" style="white-space: pre;" direction="ltr" dominant-baseline="text-before-edge">33</text></g><g transform="translate(188.6644138236211 44.13196236909499) rotate(0 11.71875 12)"><text x="11.71875" y="0" font-family="Cascadia, Segoe UI Emoji" font-size="20px" fill="#fff" text-anchor="middle" style="white-space: pre;" direction="ltr" dominant-baseline="text-before-edge">17</text></g><g transform="translate(41.34681803226704 154.5596849552797) rotate(0 11.71875 12)"><text x="11.71875" y="0" font-family="Cascadia, Segoe UI Emoji" font-size="20px" fill="#fff" text-anchor="middle" style="white-space: pre;" direction="ltr" dominant-baseline="text-before-edge">19</text></g><g transform="translate(338.8304122771066 150.16940935325312) rotate(0 5.859375 12)"><text x="5.859375" y="0" font-family="Cascadia, Segoe UI Emoji" font-size="20px" fill="#fff" text-anchor="middle" style="white-space: pre;" direction="ltr" dominant-baseline="text-before-edge">4</text></g><g transform="translate(217.78633939265148 10) rotate(0 9.375 9.599999999999994)"><text x="0" y="0" font-family="Cascadia, Segoe UI Emoji" font-size="16px" fill="#fff" text-anchor="start" style="white-space: pre;" direction="ltr" dominant-baseline="text-before-edge">N1</text></g><g transform="translate(362.9569527371035 116.08778187543533) rotate(0 9.375 9.599999999999994)"><text x="0" y="0" font-family="Cascadia, Segoe UI Emoji" font-size="16px" fill="#fff" text-anchor="start" style="white-space: pre;" direction="ltr" dominant-baseline="text-before-edge">N2</text></g><g transform="translate(318.7800257223614 298.6142857470058) rotate(0 9.375 9.600000000000023)"><text x="0" y="0" font-family="Cascadia, Segoe UI Emoji" font-size="16px" fill="#fff" text-anchor="start" style="white-space: pre;" direction="ltr" dominant-baseline="text-before-edge">N3</text></g><g transform="translate(55.18232852653114 304.98549467615663) rotate(0 9.375 9.600000000000023)"><text x="0" y="0" font-family="Cascadia, Segoe UI Emoji" font-size="16px" fill="#fff" text-anchor="start" style="white-space: pre;" direction="ltr" dominant-baseline="text-before-edge">N4</text></g><g transform="translate(10 120.09978988542588) rotate(0 9.375 9.600000000000023)"><text x="0" y="0" font-family="Cascadia, Segoe UI Emoji" font-size="16px" fill="#fff" text-anchor="start" style="white-space: pre;" direction="ltr" dominant-baseline="text-before-edge">N5</text></g><g stroke-linecap="round"><g transform="translate(936.9960404011243 148.71013705631782) rotate(0 -47.338563497524206 -32.24392721979791)"><path d="M0 0 C-15.78 -10.75, -78.9 -53.74, -94.68 -64.49 M0 0 C-15.78 -10.75, -78.9 -53.74, -94.68 -64.49" stroke="#12b886" stroke-width="4" fill="none"></path></g><g transform="translate(936.9960404011243 148.71013705631782) rotate(0 -47.338563497524206 -32.24392721979791)"><path d="M-94.68 -64.49 L-79.87 -62.07 L-87.01 -51.6 L-94.68 -64.49" stroke="none" stroke-width="0" fill="#12b886" fill-rule="evenodd"></path><path d="M-94.68 -64.49 C-90.03 -63.73, -85.38 -62.97, -79.87 -62.07 M-94.68 -64.49 C-89.38 -63.62, -84.09 -62.76, -79.87 -62.07 M-79.87 -62.07 C-81.48 -59.71, -83.09 -57.35, -87.01 -51.6 M-79.87 -62.07 C-81.82 -59.22, -83.76 -56.36, -87.01 -51.6 M-87.01 -51.6 C-89.22 -55.32, -91.44 -59.04, -94.68 -64.49 M-87.01 -51.6 C-88.71 -54.45, -90.4 -57.3, -94.68 -64.49 M-94.68 -64.49 C-94.68 -64.49, -94.68 -64.49, -94.68 -64.49 M-94.68 -64.49 C-94.68 -64.49, -94.68 -64.49, -94.68 -64.49" stroke="#12b886" stroke-width="4" fill="none"></path></g></g><mask></mask><g stroke-linecap="round"><g transform="translate(785.10154866747 84.2887034293878) rotate(0 -42.07612131436531 35.61022406782058)"><path d="M0 0 C-14.03 11.87, -70.13 59.35, -84.15 71.22 M0 0 C-14.03 11.87, -70.13 59.35, -84.15 71.22" stroke="#12b886" stroke-width="4" fill="none"></path></g><g transform="translate(785.10154866747 84.2887034293878) rotate(0 -42.07612131436531 35.61022406782058)"><path d="M-84.15 71.22 L-77.87 57.6 L-69.68 67.28 L-84.15 71.22" stroke="none" stroke-width="0" fill="#12b886" fill-rule="evenodd"></path><path d="M-84.15 71.22 C-81.94 66.42, -79.72 61.61, -77.87 57.6 M-84.15 71.22 C-81.89 66.32, -79.63 61.41, -77.87 57.6 M-77.87 57.6 C-74.6 61.46, -71.34 65.32, -69.68 67.28 M-77.87 57.6 C-75.6 60.28, -73.33 62.97, -69.68 67.28 M-69.68 67.28 C-73.73 68.38, -77.78 69.48, -84.15 71.22 M-69.68 67.28 C-74.14 68.49, -78.6 69.71, -84.15 71.22 M-84.15 71.22 C-84.15 71.22, -84.15 71.22, -84.15 71.22 M-84.15 71.22 C-84.15 71.22, -84.15 71.22, -84.15 71.22" stroke="#12b886" stroke-width="4" fill="none"></path></g></g><mask></mask><g stroke-linecap="round"><g transform="translate(696.3193250853375 196.87592111565294) rotate(0 90.0089822187756 67.74402220288914)"><path d="M0 0 C30 22.58, 150.01 112.91, 180.02 135.49 M0 0 C30 22.58, 150.01 112.91, 180.02 135.49" stroke="#12b886" stroke-width="4" fill="none"></path></g><g transform="translate(696.3193250853375 196.87592111565294) rotate(0 90.0089822187756 67.74402220288914)"><path d="M180.02 135.49 L165.34 132.38 L172.97 122.25 L180.02 135.49" stroke="none" stroke-width="0" fill="#12b886" fill-rule="evenodd"></path><path d="M180.02 135.49 C175.97 134.63, 171.92 133.77, 165.34 132.38 M180.02 135.49 C176.1 134.66, 172.18 133.83, 165.34 132.38 M165.34 132.38 C166.88 130.34, 168.41 128.3, 172.97 122.25 M165.34 132.38 C168.36 128.37, 171.38 124.36, 172.97 122.25 M172.97 122.25 C175.71 127.41, 178.46 132.56, 180.02 135.49 M172.97 122.25 C174.56 125.23, 176.15 128.22, 180.02 135.49 M180.02 135.49 C180.02 135.49, 180.02 135.49, 180.02 135.49 M180.02 135.49 C180.02 135.49, 180.02 135.49, 180.02 135.49" stroke="#12b886" stroke-width="4" fill="none"></path></g></g><mask></mask><g stroke-linecap="round"><g transform="translate(874.2352396684884 352.0425384942876) rotate(0 -58.69776081751377 -0.3218876417198544)"><path d="M0 0 C-19.57 -0.11, -97.83 -0.54, -117.4 -0.64 M0 0 C-19.57 -0.11, -97.83 -0.54, -117.4 -0.64" stroke="#12b886" stroke-width="4" fill="none"></path></g><g transform="translate(874.2352396684884 352.0425384942876) rotate(0 -58.69776081751377 -0.3218876417198544)"><path d="M-117.4 -0.64 L-103.77 -6.91 L-103.84 5.77 L-117.4 -0.64" stroke="none" stroke-width="0" fill="#12b886" fill-rule="evenodd"></path><path d="M-117.4 -0.64 C-113.29 -2.53, -109.18 -4.42, -103.77 -6.91 M-117.4 -0.64 C-112.62 -2.84, -107.84 -5.04, -103.77 -6.91 M-103.77 -6.91 C-103.78 -3.53, -103.8 -0.14, -103.84 5.77 M-103.77 -6.91 C-103.78 -3.82, -103.8 -0.73, -103.84 5.77 M-103.84 5.77 C-108 3.8, -112.17 1.83, -117.4 -0.64 M-103.84 5.77 C-108.38 3.62, -112.93 1.47, -117.4 -0.64 M-117.4 -0.64 C-117.4 -0.64, -117.4 -0.64, -117.4 -0.64 M-117.4 -0.64 C-117.4 -0.64, -117.4 -0.64, -117.4 -0.64" stroke="#12b886" stroke-width="4" fill="none"></path></g></g><mask></mask><g stroke-linecap="round"><g transform="translate(417.1271296771838 131.7515503304553) rotate(0 102.41371290707951 -6.34918854324232)"><path d="M0 0 C16.99 -2.37, 67.79 -14.47, 101.93 -14.21 C136.06 -13.96, 187.68 -1.1, 204.83 1.52 M0 0 C16.99 -2.37, 67.79 -14.47, 101.93 -14.21 C136.06 -13.96, 187.68 -1.1, 204.83 1.52" stroke="#364fc7" stroke-width="1" fill="none"></path></g><g transform="translate(417.1271296771838 131.7515503304553) rotate(0 102.41371290707951 -6.34918854324232)"><path d="M204.83 1.52 L190.28 5.17 L192.68 -7.28 L204.83 1.52" stroke="none" stroke-width="0" fill="#364fc7" fill-rule="evenodd"></path><path d="M204.83 1.52 C199.88 2.76, 194.94 4, 190.28 5.17 M204.83 1.52 C200.91 2.5, 196.99 3.49, 190.28 5.17 M190.28 5.17 C191.06 1.1, 191.85 -2.97, 192.68 -7.28 M190.28 5.17 C191.11 0.87, 191.94 -3.43, 192.68 -7.28 M192.68 -7.28 C196.27 -4.68, 199.86 -2.08, 204.83 1.52 M192.68 -7.28 C196.57 -4.47, 200.45 -1.65, 204.83 1.52 M204.83 1.52 C204.83 1.52, 204.83 1.52, 204.83 1.52 M204.83 1.52 C204.83 1.52, 204.83 1.52, 204.83 1.52" stroke="#364fc7" stroke-width="1" fill="none"></path></g></g><mask></mask><g transform="translate(486.2552842238607 76.17350955264834) rotate(0 31.1103515625 16.80000000000001)"><text x="0" y="0" font-family="Helvetica, Segoe UI Emoji" font-size="28px" fill="#364fc7" text-anchor="start" style="white-space: pre;" direction="ltr" dominant-baseline="text-before-edge">GNN</text></g><g stroke-linecap="round" transform="translate(541.7978042002318 53.89366386050904) rotate(449.86578480321765 2.6448533617377734 2.555197315577118)"><path d="M5.29 2.56 C5.29 2.7, 5.28 2.85, 5.25 3 C5.22 3.14, 5.18 3.29, 5.13 3.43 C5.08 3.57, 5.01 3.7, 4.94 3.83 C4.86 3.96, 4.77 4.08, 4.67 4.2 C4.57 4.31, 4.46 4.42, 4.34 4.51 C4.23 4.61, 4.1 4.69, 3.97 4.77 C3.83 4.84, 3.69 4.91, 3.55 4.96 C3.41 5.01, 3.25 5.05, 3.1 5.07 C2.95 5.1, 2.8 5.11, 2.64 5.11 C2.49 5.11, 2.34 5.1, 2.19 5.07 C2.03 5.05, 1.88 5.01, 1.74 4.96 C1.6 4.91, 1.46 4.84, 1.32 4.77 C1.19 4.69, 1.06 4.61, 0.94 4.51 C0.83 4.42, 0.72 4.31, 0.62 4.2 C0.52 4.08, 0.43 3.96, 0.35 3.83 C0.28 3.7, 0.21 3.57, 0.16 3.43 C0.11 3.29, 0.07 3.14, 0.04 3 C0.01 2.85, 0 2.7, 0 2.56 C0 2.41, 0.01 2.26, 0.04 2.11 C0.07 1.97, 0.11 1.82, 0.16 1.68 C0.21 1.54, 0.28 1.41, 0.35 1.28 C0.43 1.15, 0.52 1.03, 0.62 0.91 C0.72 0.8, 0.83 0.69, 0.94 0.6 C1.06 0.5, 1.19 0.42, 1.32 0.34 C1.46 0.27, 1.6 0.2, 1.74 0.15 C1.88 0.1, 2.03 0.06, 2.19 0.04 C2.34 0.01, 2.49 0, 2.64 0 C2.8 0, 2.95 0.01, 3.1 0.04 C3.25 0.06, 3.41 0.1, 3.55 0.15 C3.69 0.2, 3.83 0.27, 3.97 0.34 C4.1 0.42, 4.23 0.5, 4.34 0.6 C4.46 0.69, 4.57 0.8, 4.67 0.91 C4.77 1.03, 4.86 1.15, 4.94 1.28 C5.01 1.41, 5.08 1.54, 5.13 1.68 C5.18 1.82, 5.22 1.97, 5.25 2.11 C5.28 2.26, 5.28 2.48, 5.29 2.56 C5.3 2.63, 5.3 2.48, 5.29 2.56" stroke="#364fc7" stroke-width="1" fill="none"></path></g><g stroke-linecap="round" transform="translate(528.984280447315 44.50055021101082) rotate(449.86578480321765 2.6448533617377734 2.555197315577118)"><path d="M5.29 2.56 C5.29 2.7, 5.28 2.85, 5.25 3 C5.22 3.14, 5.18 3.29, 5.13 3.43 C5.08 3.57, 5.01 3.7, 4.94 3.83 C4.86 3.96, 4.77 4.08, 4.67 4.2 C4.57 4.31, 4.46 4.42, 4.34 4.51 C4.23 4.61, 4.1 4.69, 3.97 4.77 C3.83 4.84, 3.69 4.91, 3.55 4.96 C3.41 5.01, 3.25 5.05, 3.1 5.07 C2.95 5.1, 2.8 5.11, 2.64 5.11 C2.49 5.11, 2.34 5.1, 2.19 5.07 C2.03 5.05, 1.88 5.01, 1.74 4.96 C1.6 4.91, 1.46 4.84, 1.32 4.77 C1.19 4.69, 1.06 4.61, 0.94 4.51 C0.83 4.42, 0.72 4.31, 0.62 4.2 C0.52 4.08, 0.43 3.96, 0.35 3.83 C0.28 3.7, 0.21 3.57, 0.16 3.43 C0.11 3.29, 0.07 3.14, 0.04 3 C0.01 2.85, 0 2.7, 0 2.56 C0 2.41, 0.01 2.26, 0.04 2.11 C0.07 1.97, 0.11 1.82, 0.16 1.68 C0.21 1.54, 0.28 1.41, 0.35 1.28 C0.43 1.15, 0.52 1.03, 0.62 0.91 C0.72 0.8, 0.83 0.69, 0.94 0.6 C1.06 0.5, 1.19 0.42, 1.32 0.34 C1.46 0.27, 1.6 0.2, 1.74 0.15 C1.88 0.1, 2.03 0.06, 2.19 0.04 C2.34 0.01, 2.49 0, 2.64 0 C2.8 0, 2.95 0.01, 3.1 0.04 C3.25 0.06, 3.41 0.1, 3.55 0.15 C3.69 0.2, 3.83 0.27, 3.97 0.34 C4.1 0.42, 4.23 0.5, 4.34 0.6 C4.46 0.69, 4.57 0.8, 4.67 0.91 C4.77 1.03, 4.86 1.15, 4.94 1.28 C5.01 1.41, 5.08 1.54, 5.13 1.68 C5.18 1.82, 5.22 1.97, 5.25 2.11 C5.28 2.26, 5.28 2.48, 5.29 2.56 C5.3 2.63, 5.3 2.48, 5.29 2.56" stroke="#364fc7" stroke-width="1" fill="none"></path></g><g stroke-linecap="round" transform="translate(514.9071600621515 39.45883928384774) rotate(449.86578480321765 2.6448533617377734 2.555197315577118)"><path d="M5.29 2.56 C5.29 2.7, 5.28 2.85, 5.25 3 C5.22 3.14, 5.18 3.29, 5.13 3.43 C5.08 3.57, 5.01 3.7, 4.94 3.83 C4.86 3.96, 4.77 4.08, 4.67 4.2 C4.57 4.31, 4.46 4.42, 4.34 4.51 C4.23 4.61, 4.1 4.69, 3.97 4.77 C3.83 4.84, 3.69 4.91, 3.55 4.96 C3.41 5.01, 3.25 5.05, 3.1 5.07 C2.95 5.1, 2.8 5.11, 2.64 5.11 C2.49 5.11, 2.34 5.1, 2.19 5.07 C2.03 5.05, 1.88 5.01, 1.74 4.96 C1.6 4.91, 1.46 4.84, 1.32 4.77 C1.19 4.69, 1.06 4.61, 0.94 4.51 C0.83 4.42, 0.72 4.31, 0.62 4.2 C0.52 4.08, 0.43 3.96, 0.35 3.83 C0.28 3.7, 0.21 3.57, 0.16 3.43 C0.11 3.29, 0.07 3.14, 0.04 3 C0.01 2.85, 0 2.7, 0 2.56 C0 2.41, 0.01 2.26, 0.04 2.11 C0.07 1.97, 0.11 1.82, 0.16 1.68 C0.21 1.54, 0.28 1.41, 0.35 1.28 C0.43 1.15, 0.52 1.03, 0.62 0.91 C0.72 0.8, 0.83 0.69, 0.94 0.6 C1.06 0.5, 1.19 0.42, 1.32 0.34 C1.46 0.27, 1.6 0.2, 1.74 0.15 C1.88 0.1, 2.03 0.06, 2.19 0.04 C2.34 0.01, 2.49 0, 2.64 0 C2.8 0, 2.95 0.01, 3.1 0.04 C3.25 0.06, 3.41 0.1, 3.55 0.15 C3.69 0.2, 3.83 0.27, 3.97 0.34 C4.1 0.42, 4.23 0.5, 4.34 0.6 C4.46 0.69, 4.57 0.8, 4.67 0.91 C4.77 1.03, 4.86 1.15, 4.94 1.28 C5.01 1.41, 5.08 1.54, 5.13 1.68 C5.18 1.82, 5.22 1.97, 5.25 2.11 C5.28 2.26, 5.28 2.48, 5.29 2.56 C5.3 2.63, 5.3 2.48, 5.29 2.56" stroke="#364fc7" stroke-width="1" fill="none"></path></g><g stroke-linecap="round" transform="translate(514.9071600621515 49.2679702701065) rotate(449.86578480321765 2.6448533617377734 2.555197315577118)"><path d="M5.29 2.56 C5.29 2.7, 5.28 2.85, 5.25 3 C5.22 3.14, 5.18 3.29, 5.13 3.43 C5.08 3.57, 5.01 3.7, 4.94 3.83 C4.86 3.96, 4.77 4.08, 4.67 4.2 C4.57 4.31, 4.46 4.42, 4.34 4.51 C4.23 4.61, 4.1 4.69, 3.97 4.77 C3.83 4.84, 3.69 4.91, 3.55 4.96 C3.41 5.01, 3.25 5.05, 3.1 5.07 C2.95 5.1, 2.8 5.11, 2.64 5.11 C2.49 5.11, 2.34 5.1, 2.19 5.07 C2.03 5.05, 1.88 5.01, 1.74 4.96 C1.6 4.91, 1.46 4.84, 1.32 4.77 C1.19 4.69, 1.06 4.61, 0.94 4.51 C0.83 4.42, 0.72 4.31, 0.62 4.2 C0.52 4.08, 0.43 3.96, 0.35 3.83 C0.28 3.7, 0.21 3.57, 0.16 3.43 C0.11 3.29, 0.07 3.14, 0.04 3 C0.01 2.85, 0 2.7, 0 2.56 C0 2.41, 0.01 2.26, 0.04 2.11 C0.07 1.97, 0.11 1.82, 0.16 1.68 C0.21 1.54, 0.28 1.41, 0.35 1.28 C0.43 1.15, 0.52 1.03, 0.62 0.91 C0.72 0.8, 0.83 0.69, 0.94 0.6 C1.06 0.5, 1.19 0.42, 1.32 0.34 C1.46 0.27, 1.6 0.2, 1.74 0.15 C1.88 0.1, 2.03 0.06, 2.19 0.04 C2.34 0.01, 2.49 0, 2.64 0 C2.8 0, 2.95 0.01, 3.1 0.04 C3.25 0.06, 3.41 0.1, 3.55 0.15 C3.69 0.2, 3.83 0.27, 3.97 0.34 C4.1 0.42, 4.23 0.5, 4.34 0.6 C4.46 0.69, 4.57 0.8, 4.67 0.91 C4.77 1.03, 4.86 1.15, 4.94 1.28 C5.01 1.41, 5.08 1.54, 5.13 1.68 C5.18 1.82, 5.22 1.97, 5.25 2.11 C5.28 2.26, 5.28 2.48, 5.29 2.56 C5.3 2.63, 5.3 2.48, 5.29 2.56" stroke="#364fc7" stroke-width="1" fill="none"></path></g><g stroke-linecap="round"><g transform="translate(526.201318021126 39.81797455175172) rotate(89.99999999999994 -1.5374896331500167 4.465122857351787)"><path d="M0 0 C-0.51 1.49, -2.56 7.44, -3.07 8.93 M0 0 C-0.51 1.49, -2.56 7.44, -3.07 8.93" stroke="#364fc7" stroke-width="1" fill="none"></path></g></g><mask></mask><g stroke-linecap="round"><g transform="translate(519.1323178495755 44.165767988372295) rotate(89.99999999999994 2.4633801414286154 6.749587425364723)"><path d="M0 0 C0.82 2.25, 4.11 11.25, 4.93 13.5 M0 0 C0.82 2.25, 4.11 11.25, 4.93 13.5" stroke="#364fc7" stroke-width="1" fill="none"></path></g></g><mask></mask><g stroke-linecap="round" transform="translate(528.9842804473152 63.8882991962476) rotate(449.86578480321765 2.6448533617377734 2.555197315577118)"><path d="M5.29 2.56 C5.29 2.7, 5.28 2.85, 5.25 3 C5.22 3.14, 5.18 3.29, 5.13 3.43 C5.08 3.57, 5.01 3.7, 4.94 3.83 C4.86 3.96, 4.77 4.08, 4.67 4.2 C4.57 4.31, 4.46 4.42, 4.34 4.51 C4.23 4.61, 4.1 4.69, 3.97 4.77 C3.83 4.84, 3.69 4.91, 3.55 4.96 C3.41 5.01, 3.25 5.05, 3.1 5.07 C2.95 5.1, 2.8 5.11, 2.64 5.11 C2.49 5.11, 2.34 5.1, 2.19 5.07 C2.03 5.05, 1.88 5.01, 1.74 4.96 C1.6 4.91, 1.46 4.84, 1.32 4.77 C1.19 4.69, 1.06 4.61, 0.94 4.51 C0.83 4.42, 0.72 4.31, 0.62 4.2 C0.52 4.08, 0.43 3.96, 0.35 3.83 C0.28 3.7, 0.21 3.57, 0.16 3.43 C0.11 3.29, 0.07 3.14, 0.04 3 C0.01 2.85, 0 2.7, 0 2.56 C0 2.41, 0.01 2.26, 0.04 2.11 C0.07 1.97, 0.11 1.82, 0.16 1.68 C0.21 1.54, 0.28 1.41, 0.35 1.28 C0.43 1.15, 0.52 1.03, 0.62 0.91 C0.72 0.8, 0.83 0.69, 0.94 0.6 C1.06 0.5, 1.19 0.42, 1.32 0.34 C1.46 0.27, 1.6 0.2, 1.74 0.15 C1.88 0.1, 2.03 0.06, 2.19 0.04 C2.34 0.01, 2.49 0, 2.64 0 C2.8 0, 2.95 0.01, 3.1 0.04 C3.25 0.06, 3.41 0.1, 3.55 0.15 C3.69 0.2, 3.83 0.27, 3.97 0.34 C4.1 0.42, 4.23 0.5, 4.34 0.6 C4.46 0.69, 4.57 0.8, 4.67 0.91 C4.77 1.03, 4.86 1.15, 4.94 1.28 C5.01 1.41, 5.08 1.54, 5.13 1.68 C5.18 1.82, 5.22 1.97, 5.25 2.11 C5.28 2.26, 5.28 2.48, 5.29 2.56 C5.3 2.63, 5.3 2.48, 5.29 2.56" stroke="#364fc7" stroke-width="1" fill="none"></path></g><g stroke-linecap="round" transform="translate(514.9071600621515 58.993863828842734) rotate(449.86578480321765 2.6448533617377734 2.555197315577118)"><path d="M5.29 2.56 C5.29 2.7, 5.28 2.85, 5.25 3 C5.22 3.14, 5.18 3.29, 5.13 3.43 C5.08 3.57, 5.01 3.7, 4.94 3.83 C4.86 3.96, 4.77 4.08, 4.67 4.2 C4.57 4.31, 4.46 4.42, 4.34 4.51 C4.23 4.61, 4.1 4.69, 3.97 4.77 C3.83 4.84, 3.69 4.91, 3.55 4.96 C3.41 5.01, 3.25 5.05, 3.1 5.07 C2.95 5.1, 2.8 5.11, 2.64 5.11 C2.49 5.11, 2.34 5.1, 2.19 5.07 C2.03 5.05, 1.88 5.01, 1.74 4.96 C1.6 4.91, 1.46 4.84, 1.32 4.77 C1.19 4.69, 1.06 4.61, 0.94 4.51 C0.83 4.42, 0.72 4.31, 0.62 4.2 C0.52 4.08, 0.43 3.96, 0.35 3.83 C0.28 3.7, 0.21 3.57, 0.16 3.43 C0.11 3.29, 0.07 3.14, 0.04 3 C0.01 2.85, 0 2.7, 0 2.56 C0 2.41, 0.01 2.26, 0.04 2.11 C0.07 1.97, 0.11 1.82, 0.16 1.68 C0.21 1.54, 0.28 1.41, 0.35 1.28 C0.43 1.15, 0.52 1.03, 0.62 0.91 C0.72 0.8, 0.83 0.69, 0.94 0.6 C1.06 0.5, 1.19 0.42, 1.32 0.34 C1.46 0.27, 1.6 0.2, 1.74 0.15 C1.88 0.1, 2.03 0.06, 2.19 0.04 C2.34 0.01, 2.49 0, 2.64 0 C2.8 0, 2.95 0.01, 3.1 0.04 C3.25 0.06, 3.41 0.1, 3.55 0.15 C3.69 0.2, 3.83 0.27, 3.97 0.34 C4.1 0.42, 4.23 0.5, 4.34 0.6 C4.46 0.69, 4.57 0.8, 4.67 0.91 C4.77 1.03, 4.86 1.15, 4.94 1.28 C5.01 1.41, 5.08 1.54, 5.13 1.68 C5.18 1.82, 5.22 1.97, 5.25 2.11 C5.28 2.26, 5.28 2.48, 5.29 2.56 C5.3 2.63, 5.3 2.48, 5.29 2.56" stroke="#364fc7" stroke-width="1" fill="none"></path></g><g stroke-linecap="round" transform="translate(514.9071600621515 68.84461352886257) rotate(449.86578480321765 2.6448533617377734 2.555197315577118)"><path d="M5.29 2.56 C5.29 2.7, 5.28 2.85, 5.25 3 C5.22 3.14, 5.18 3.29, 5.13 3.43 C5.08 3.57, 5.01 3.7, 4.94 3.83 C4.86 3.96, 4.77 4.08, 4.67 4.2 C4.57 4.31, 4.46 4.42, 4.34 4.51 C4.23 4.61, 4.1 4.69, 3.97 4.77 C3.83 4.84, 3.69 4.91, 3.55 4.96 C3.41 5.01, 3.25 5.05, 3.1 5.07 C2.95 5.1, 2.8 5.11, 2.64 5.11 C2.49 5.11, 2.34 5.1, 2.19 5.07 C2.03 5.05, 1.88 5.01, 1.74 4.96 C1.6 4.91, 1.46 4.84, 1.32 4.77 C1.19 4.69, 1.06 4.61, 0.94 4.51 C0.83 4.42, 0.72 4.31, 0.62 4.2 C0.52 4.08, 0.43 3.96, 0.35 3.83 C0.28 3.7, 0.21 3.57, 0.16 3.43 C0.11 3.29, 0.07 3.14, 0.04 3 C0.01 2.85, 0 2.7, 0 2.56 C0 2.41, 0.01 2.26, 0.04 2.11 C0.07 1.97, 0.11 1.82, 0.16 1.68 C0.21 1.54, 0.28 1.41, 0.35 1.28 C0.43 1.15, 0.52 1.03, 0.62 0.91 C0.72 0.8, 0.83 0.69, 0.94 0.6 C1.06 0.5, 1.19 0.42, 1.32 0.34 C1.46 0.27, 1.6 0.2, 1.74 0.15 C1.88 0.1, 2.03 0.06, 2.19 0.04 C2.34 0.01, 2.49 0, 2.64 0 C2.8 0, 2.95 0.01, 3.1 0.04 C3.25 0.06, 3.41 0.1, 3.55 0.15 C3.69 0.2, 3.83 0.27, 3.97 0.34 C4.1 0.42, 4.23 0.5, 4.34 0.6 C4.46 0.69, 4.57 0.8, 4.67 0.91 C4.77 1.03, 4.86 1.15, 4.94 1.28 C5.01 1.41, 5.08 1.54, 5.13 1.68 C5.18 1.82, 5.22 1.97, 5.25 2.11 C5.28 2.26, 5.28 2.48, 5.29 2.56 C5.3 2.63, 5.3 2.48, 5.29 2.56" stroke="#364fc7" stroke-width="1" fill="none"></path></g><g stroke-linecap="round"><g transform="translate(526.1891801285459 59.19463231452852) rotate(89.99999999999994 -1.5381584776973796 4.477220959305299)"><path d="M0 0 C-0.51 1.49, -2.56 7.46, -3.08 8.95 M0 0 C-0.51 1.49, -2.56 7.46, -3.08 8.95" stroke="#364fc7" stroke-width="1" fill="none"></path></g></g><mask></mask><g stroke-linecap="round"><g transform="translate(522.9605976013999 64.74747140969981) rotate(89.99999999999994 1.7469296276797195 4.497382463669112)"><path d="M0 0 C0.58 1.5, 2.91 7.5, 3.49 8.99 M0 0 C0.58 1.5, 2.91 7.5, 3.49 8.99" stroke="#364fc7" stroke-width="1" fill="none"></path></g></g><mask></mask><g stroke-linecap="round"><g transform="translate(541.3702272930901 47.326275140745906) rotate(89.99999999999994 -3.1370733884050424 4.174190905814669)"><path d="M0 0 C-1.05 1.39, -5.23 6.96, -6.27 8.35 M0 0 C-1.05 1.39, -5.23 6.96, -6.27 8.35" stroke="#364fc7" stroke-width="1" fill="none"></path></g></g><mask></mask><g stroke-linecap="round"><g transform="translate(535.0102210235985 57.20929184031394) rotate(89.99999999999994 3.115895621622485 4.2181959891398435)"><path d="M0 0 C1.04 1.41, 5.19 7.03, 6.23 8.44 M0 0 C1.04 1.41, 5.19 7.03, 6.23 8.44" stroke="#364fc7" stroke-width="1" fill="none"></path></g></g><mask></mask><g stroke-linecap="round"><g transform="translate(520.185718518109 42.52881523399412) rotate(0 5.243957933894876 10.746876753414227)"><path d="M0 0 C1.75 3.58, 8.74 17.91, 10.49 21.49 M0 0 C1.75 3.58, 8.74 17.91, 10.49 21.49" stroke="#364fc7" stroke-width="1" fill="none"></path></g></g><mask></mask><g stroke-linecap="round"><g transform="translate(520.4446794037334 51.72192667366164) rotate(0 4.984997048270429 6.020840590768216)"><path d="M0 0 C1.66 2.01, 8.31 10.03, 9.97 12.04 M0 0 C1.66 2.01, 8.31 10.03, 9.97 12.04" stroke="#364fc7" stroke-width="1" fill="none"></path></g></g><mask></mask><g stroke-linecap="round"><g transform="translate(520.4446794037334 61.82140121301478) rotate(0 5.308698155301045 -5.891360147955993)"><path d="M0 0 C1.77 -1.96, 8.85 -9.82, 10.62 -11.78 M0 0 C1.77 -1.96, 8.85 -9.82, 10.62 -11.78" stroke="#364fc7" stroke-width="1" fill="none"></path></g></g><mask></mask><g stroke-linecap="round"><g transform="translate(520.3151989609213 71.0145126526823) rotate(0 5.567659040925491 -10.487915867789809)"><path d="M0 0 C1.86 -3.5, 9.28 -17.48, 11.14 -20.98 M0 0 C1.86 -3.5, 9.28 -17.48, 11.14 -20.98" stroke="#364fc7" stroke-width="1" fill="none"></path></g></g><mask></mask><g stroke-linecap="round"><g transform="translate(546.9881701802384 56.38322261490168) rotate(0 3.0427904060871924 0.04743851894028239)"><path d="M0 0 C1.01 0.02, 5.07 0.08, 6.09 0.09 M0 0 C1.01 0.02, 5.07 0.08, 6.09 0.09" stroke="#364fc7" stroke-width="1" fill="none"></path></g><g transform="translate(546.9881701802384 56.38322261490168) rotate(0 3.0427904060871924 0.04743851894028239)"><path d="M6.09 0.09 L3.31 1.34 L3.35 -1.23 L6.09 0.09" stroke="none" stroke-width="0" fill="#364fc7" fill-rule="evenodd"></path><path d="M6.09 0.09 C5.17 0.5, 4.25 0.91, 3.31 1.34 M6.09 0.09 C5.36 0.42, 4.64 0.74, 3.31 1.34 M3.31 1.34 C3.32 0.61, 3.33 -0.13, 3.35 -1.23 M3.31 1.34 C3.32 0.46, 3.34 -0.41, 3.35 -1.23 M3.35 -1.23 C4.03 -0.9, 4.72 -0.57, 6.09 0.09 M3.35 -1.23 C4.31 -0.77, 5.27 -0.3, 6.09 0.09 M6.09 0.09 C6.09 0.09, 6.09 0.09, 6.09 0.09 M6.09 0.09 C6.09 0.09, 6.09 0.09, 6.09 0.09" stroke="#364fc7" stroke-width="1" fill="none"></path></g></g><mask></mask><g stroke-linecap="round"><g transform="translate(492.14653473821284 47.470795469514655) rotate(0 3.357001733948664 -0.037764586651860554)"><path d="M0 0 C1.12 -0.01, 5.6 -0.06, 6.71 -0.08 M0 0 C1.12 -0.01, 5.6 -0.06, 6.71 -0.08" stroke="#364fc7" stroke-width="1" fill="none"></path></g><g transform="translate(492.14653473821284 47.470795469514655) rotate(0 3.357001733948664 -0.037764586651860554)"><path d="M6.71 -0.08 L3.69 1.38 L3.66 -1.46 L6.71 -0.08" stroke="none" stroke-width="0" fill="#364fc7" fill-rule="evenodd"></path><path d="M6.71 -0.08 C5.91 0.31, 5.1 0.7, 3.69 1.38 M6.71 -0.08 C5.53 0.49, 4.34 1.06, 3.69 1.38 M3.69 1.38 C3.68 0.61, 3.67 -0.17, 3.66 -1.46 M3.69 1.38 C3.68 0.34, 3.66 -0.7, 3.66 -1.46 M3.66 -1.46 C4.77 -0.95, 5.89 -0.45, 6.71 -0.08 M3.66 -1.46 C4.7 -0.99, 5.75 -0.51, 6.71 -0.08 M6.71 -0.08 C6.71 -0.08, 6.71 -0.08, 6.71 -0.08 M6.71 -0.08 C6.71 -0.08, 6.71 -0.08, 6.71 -0.08" stroke="#364fc7" stroke-width="1" fill="none"></path></g></g><mask></mask><g stroke-linecap="round"><g transform="translate(493.4303886737986 67.04043150167382) rotate(0 3.3193887055150526 0.04483393332105834)"><path d="M0 0 C1.11 0.01, 5.53 0.07, 6.64 0.09 M0 0 C1.11 0.01, 5.53 0.07, 6.64 0.09" stroke="#364fc7" stroke-width="1" fill="none"></path></g><g transform="translate(493.4303886737986 67.04043150167382) rotate(0 3.3193887055150526 0.04483393332105834)"><path d="M6.64 0.09 L3.61 1.45 L3.65 -1.35 L6.64 0.09" stroke="none" stroke-width="0" fill="#364fc7" fill-rule="evenodd"></path><path d="M6.64 0.09 C5.52 0.6, 4.39 1.1, 3.61 1.45 M6.64 0.09 C5.52 0.59, 4.39 1.1, 3.61 1.45 M3.61 1.45 C3.62 0.86, 3.63 0.27, 3.65 -1.35 M3.61 1.45 C3.62 0.53, 3.64 -0.39, 3.65 -1.35 M3.65 -1.35 C4.39 -1, 5.13 -0.64, 6.64 0.09 M3.65 -1.35 C4.65 -0.87, 5.66 -0.38, 6.64 0.09 M6.64 0.09 C6.64 0.09, 6.64 0.09, 6.64 0.09 M6.64 0.09 C6.64 0.09, 6.64 0.09, 6.64 0.09" stroke="#364fc7" stroke-width="1" fill="none"></path></g></g><mask></mask><g stroke-linecap="round" transform="translate(499.7452422704465 44.71242729924904) rotate(449.86578480321765 2.6448533617377734 2.555197315577118)"><path d="M5.29 2.56 C5.29 2.7, 5.28 2.85, 5.25 3 C5.22 3.14, 5.18 3.29, 5.13 3.43 C5.08 3.57, 5.01 3.7, 4.94 3.83 C4.86 3.96, 4.77 4.08, 4.67 4.2 C4.57 4.31, 4.46 4.42, 4.34 4.51 C4.23 4.61, 4.1 4.69, 3.97 4.77 C3.83 4.84, 3.69 4.91, 3.55 4.96 C3.41 5.01, 3.25 5.05, 3.1 5.07 C2.95 5.1, 2.8 5.11, 2.64 5.11 C2.49 5.11, 2.34 5.1, 2.19 5.07 C2.03 5.05, 1.88 5.01, 1.74 4.96 C1.6 4.91, 1.46 4.84, 1.32 4.77 C1.19 4.69, 1.06 4.61, 0.94 4.51 C0.83 4.42, 0.72 4.31, 0.62 4.2 C0.52 4.08, 0.43 3.96, 0.35 3.83 C0.28 3.7, 0.21 3.57, 0.16 3.43 C0.11 3.29, 0.07 3.14, 0.04 3 C0.01 2.85, 0 2.7, 0 2.56 C0 2.41, 0.01 2.26, 0.04 2.11 C0.07 1.97, 0.11 1.82, 0.16 1.68 C0.21 1.54, 0.28 1.41, 0.35 1.28 C0.43 1.15, 0.52 1.03, 0.62 0.91 C0.72 0.8, 0.83 0.69, 0.94 0.6 C1.06 0.5, 1.19 0.42, 1.32 0.34 C1.46 0.27, 1.6 0.2, 1.74 0.15 C1.88 0.1, 2.03 0.06, 2.19 0.04 C2.34 0.01, 2.49 0, 2.64 0 C2.8 0, 2.95 0.01, 3.1 0.04 C3.25 0.06, 3.41 0.1, 3.55 0.15 C3.69 0.2, 3.83 0.27, 3.97 0.34 C4.1 0.42, 4.23 0.5, 4.34 0.6 C4.46 0.69, 4.57 0.8, 4.67 0.91 C4.77 1.03, 4.86 1.15, 4.94 1.28 C5.01 1.41, 5.08 1.54, 5.13 1.68 C5.18 1.82, 5.22 1.97, 5.25 2.11 C5.28 2.26, 5.28 2.48, 5.29 2.56 C5.3 2.63, 5.3 2.48, 5.29 2.56" stroke="#364fc7" stroke-width="1" fill="none"></path></g><g stroke-linecap="round" transform="translate(499.74524227044674 64.10017628448583) rotate(449.86578480321765 2.6448533617377734 2.555197315577118)"><path d="M5.29 2.56 C5.29 2.7, 5.28 2.85, 5.25 3 C5.22 3.14, 5.18 3.29, 5.13 3.43 C5.08 3.57, 5.01 3.7, 4.94 3.83 C4.86 3.96, 4.77 4.08, 4.67 4.2 C4.57 4.31, 4.46 4.42, 4.34 4.51 C4.23 4.61, 4.1 4.69, 3.97 4.77 C3.83 4.84, 3.69 4.91, 3.55 4.96 C3.41 5.01, 3.25 5.05, 3.1 5.07 C2.95 5.1, 2.8 5.11, 2.64 5.11 C2.49 5.11, 2.34 5.1, 2.19 5.07 C2.03 5.05, 1.88 5.01, 1.74 4.96 C1.6 4.91, 1.46 4.84, 1.32 4.77 C1.19 4.69, 1.06 4.61, 0.94 4.51 C0.83 4.42, 0.72 4.31, 0.62 4.2 C0.52 4.08, 0.43 3.96, 0.35 3.83 C0.28 3.7, 0.21 3.57, 0.16 3.43 C0.11 3.29, 0.07 3.14, 0.04 3 C0.01 2.85, 0 2.7, 0 2.56 C0 2.41, 0.01 2.26, 0.04 2.11 C0.07 1.97, 0.11 1.82, 0.16 1.68 C0.21 1.54, 0.28 1.41, 0.35 1.28 C0.43 1.15, 0.52 1.03, 0.62 0.91 C0.72 0.8, 0.83 0.69, 0.94 0.6 C1.06 0.5, 1.19 0.42, 1.32 0.34 C1.46 0.27, 1.6 0.2, 1.74 0.15 C1.88 0.1, 2.03 0.06, 2.19 0.04 C2.34 0.01, 2.49 0, 2.64 0 C2.8 0, 2.95 0.01, 3.1 0.04 C3.25 0.06, 3.41 0.1, 3.55 0.15 C3.69 0.2, 3.83 0.27, 3.97 0.34 C4.1 0.42, 4.23 0.5, 4.34 0.6 C4.46 0.69, 4.57 0.8, 4.67 0.91 C4.77 1.03, 4.86 1.15, 4.94 1.28 C5.01 1.41, 5.08 1.54, 5.13 1.68 C5.18 1.82, 5.22 1.97, 5.25 2.11 C5.28 2.26, 5.28 2.48, 5.29 2.56 C5.3 2.63, 5.3 2.48, 5.29 2.56" stroke="#364fc7" stroke-width="1" fill="none"></path></g><g stroke-linecap="round"><g transform="translate(511.844876952399 64.8922155491112) rotate(269.9999999999999 -1.5374896331500167 4.465122857351787)"><path d="M0 0 C-0.51 1.49, -2.56 7.44, -3.07 8.93 M0 0 C-0.51 1.49, -2.56 7.44, -3.07 8.93" stroke="#364fc7" stroke-width="1" fill="none"></path></g></g><mask></mask><g stroke-linecap="round"><g transform="translate(508.6007823275969 59.359688203036114) rotate(269.9999999999999 1.651850966186089 4.496433542687669)"><path d="M0 0 C0.55 1.5, 2.75 7.49, 3.3 8.99 M0 0 C0.55 1.5, 2.75 7.49, 3.3 8.99" stroke="#364fc7" stroke-width="1" fill="none"></path></g></g><mask></mask><g stroke-linecap="round"><g transform="translate(511.8583525340738 45.491361582426975) rotate(269.9999999999999 -1.5381584776973796 4.477220959305299)"><path d="M0 0 C-0.51 1.49, -2.56 7.46, -3.08 8.95 M0 0 C-0.51 1.49, -2.56 7.46, -3.08 8.95" stroke="#364fc7" stroke-width="1" fill="none"></path></g></g><mask></mask><g stroke-linecap="round"><g transform="translate(508.51675885046564 39.89819947852857) rotate(269.9999999999999 1.7469296276797195 4.497382463669112)"><path d="M0 0 C0.58 1.5, 2.91 7.5, 3.49 8.99 M0 0 C0.58 1.5, 2.91 7.5, 3.49 8.99" stroke="#364fc7" stroke-width="1" fill="none"></path></g></g><mask></mask><g stroke-linecap="round"><g transform="translate(504.30050580378327 49.65109087184658) rotate(180 5.243957933894876 10.746876753414227)"><path d="M0 0 C1.75 3.58, 8.74 17.91, 10.49 21.49 M0 0 C1.75 3.58, 8.74 17.91, 10.49 21.49" stroke="#364fc7" stroke-width="1" fill="none"></path></g></g><mask></mask><g stroke-linecap="round"><g transform="translate(504.4924404559689 49.99171658528587) rotate(180 4.984997048270429 6.020840590768216)"><path d="M0 0 C1.66 2.01, 8.31 10.03, 9.97 12.04 M0 0 C1.66 2.01, 8.31 10.03, 9.97 12.04" stroke="#364fc7" stroke-width="1" fill="none"></path></g></g><mask></mask><g stroke-linecap="round"><g transform="translate(504.03736855224895 63.7161997272338) rotate(180 5.308698155301045 -5.891360147955993)"><path d="M0 0 C1.77 -1.96, 8.85 -9.82, 10.62 -11.78 M0 0 C1.77 -1.96, 8.85 -9.82, 10.62 -11.78" stroke="#364fc7" stroke-width="1" fill="none"></path></g></g><mask></mask><g stroke-linecap="round"><g transform="translate(503.41530620907145 63.63613209932333) rotate(180 5.567659040925491 -10.487915867789809)"><path d="M0 0 C1.86 -3.5, 9.28 -17.48, 11.14 -20.98 M0 0 C1.86 -3.5, 9.28 -17.48, 11.14 -20.98" stroke="#364fc7" stroke-width="1" fill="none"></path></g></g><mask></mask><g transform="translate(979.8442887812843 131.61733126767308) rotate(0 9.375 9.599999999999994)"><text x="0" y="0" font-family="Cascadia, Segoe UI Emoji" font-size="16px" fill="#fff" text-anchor="start" style="white-space: pre;" direction="ltr" dominant-baseline="text-before-edge">N2</text></g><g transform="translate(934.6832342539918 311.46574434900486) rotate(0 9.375 9.600000000000023)"><text x="0" y="0" font-family="Cascadia, Segoe UI Emoji" font-size="16px" fill="#fff" text-anchor="start" style="white-space: pre;" direction="ltr" dominant-baseline="text-before-edge">N3</text></g><g transform="translate(675.105242571611 312.69820719925536) rotate(0 9.375 9.600000000000023)"><text x="0" y="0" font-family="Cascadia, Segoe UI Emoji" font-size="16px" fill="#fff" text-anchor="start" style="white-space: pre;" direction="ltr" dominant-baseline="text-before-edge">N4</text></g><g transform="translate(676.8842433518811 127.02075349966361) rotate(0 9.375 9.600000000000023)"><text x="0" y="0" font-family="Cascadia, Segoe UI Emoji" font-size="16px" fill="#fff" text-anchor="start" style="white-space: pre;" direction="ltr" dominant-baseline="text-before-edge">N5</text></g><g transform="translate(827.5332839902682 17.615948923529345) rotate(0 9.375 9.599999999999994)"><text x="0" y="0" font-family="Cascadia, Segoe UI Emoji" font-size="16px" fill="#fff" text-anchor="start" style="white-space: pre;" direction="ltr" dominant-baseline="text-before-edge">N1</text></g></svg>