<?xml version="1.0" encoding="UTF-8"?>
<svg xmlns="http://www.w3.org/2000/svg" xmlns:xlink="http://www.w3.org/1999/xlink" version="1.1" x="0" y="0" width="900" height="380" viewBox="0 0 900 380" style="background-color:#fff"><svg x="0" y="0" width="300" height="380" viewBox="0 0 300 380" style="background-color:#fff"><svg x="0" y="0" width="300" height="80" viewBox="-150 -40 300 80" style="background-color:#fff"><g><text style="font-size:30px" x="0" y="0" dominant-baseline="middle" text-anchor="middle">
    X
</text></g></svg><svg x="0" y="80" width="300" height="300" viewBox="-100 -100 200 200" style="background-color:#fff;"><defs><style type="text/css"/></defs><g>
          
    <line x1="0" y1="0" x2="24.721611818366604" y2="0" stroke-width="3" stroke="#333" opacity="1" transform="scale(1,-1) translate(80.0, 0.0) rotate(110.0045756654434) translate(15.0, 0)"/>
  
    <line x1="0" y1="0" x2="72.8436701989967" y2="0" stroke-width="3" stroke="#333" opacity="1" transform="scale(1,-1) translate(80.0, 0.0) rotate(130.00244587170613) translate(15.0, 0)"/>
  
    <line x1="0" y1="0" x2="108.56304846531054" y2="0" stroke-width="3" stroke="#333" opacity="1" transform="scale(1,-1) translate(80.0, 0.0) rotate(150.00072777015302) translate(15.0, 0)"/>
  
    <line x1="0" y1="0" x2="127.57348127143729" y2="0" stroke-width="3" stroke="#333" opacity="1" transform="scale(1,-1) translate(80.0, 0.0) rotate(170.000866885569) translate(15.0, 0)"/>
  
    <line x1="0" y1="0" x2="127.57348127143729" y2="0" stroke-width="3" stroke="#333" opacity="1" transform="scale(1,-1) translate(80.0, 0.0) rotate(189.999133114431) translate(15.0, 0)"/>
  
    <line x1="0" y1="0" x2="108.56304846531054" y2="0" stroke-width="3" stroke="#333" opacity="1" transform="scale(1,-1) translate(80.0, 0.0) rotate(209.99927222984698) translate(15.0, 0)"/>
  
    <line x1="0" y1="0" x2="72.8436701989967" y2="0" stroke-width="3" stroke="#333" opacity="1" transform="scale(1,-1) translate(80.0, 0.0) rotate(229.99755412829387) translate(15.0, 0)"/>
  
    <line x1="0" y1="0" x2="24.721611818366604" y2="0" stroke-width="3" stroke="#333" opacity="1" transform="scale(1,-1) translate(80.0, 0.0) rotate(249.99542433455662) translate(15.0, 0)"/>
   
    <line x1="0" y1="0" x2="24.720943888058073" y2="0" stroke-width="3" stroke="#333" opacity="1" transform="scale(1,-1) translate(61.28, 51.42) rotate(150.00057059461417) translate(15.0, 0)"/>
  
    <line x1="0" y1="0" x2="72.84268569032997" y2="0" stroke-width="3" stroke="#333" opacity="1" transform="scale(1,-1) translate(61.28, 51.42) rotate(169.99912028723372) translate(15.0, 0)"/>
  
    <line x1="0" y1="0" x2="108.56484113944634" y2="0" stroke-width="3" stroke="#333" opacity="1" transform="scale(1,-1) translate(61.28, 51.42) rotate(189.9993566908774) translate(15.0, 0)"/>
  
    <line x1="0" y1="0" x2="127.56782666521741" y2="0" stroke-width="3" stroke="#333" opacity="1" transform="scale(1,-1) translate(61.28, 51.42) rotate(209.99835688627857) translate(15.0, 0)"/>
  
    <line x1="0" y1="0" x2="127.5630933943606" y2="0" stroke-width="3" stroke="#333" opacity="1" transform="scale(1,-1) translate(61.28, 51.42) rotate(229.99981210512382) translate(15.0, 0)"/>
  
    <line x1="0" y1="0" x2="108.55631382221452" y2="0" stroke-width="3" stroke="#333" opacity="1" transform="scale(1,-1) translate(61.28, 51.42) rotate(249.99958208115652) translate(15.0, 0)"/>
  
    <line x1="0" y1="0" x2="72.84" y2="0" stroke-width="3" stroke="#333" opacity="1" transform="scale(1,-1) translate(61.28, 51.42) rotate(270.0) translate(15.0, 0)"/>
   
    <line x1="0" y1="0" x2="24.720947542965668" y2="0" stroke-width="3" stroke="#333" opacity="1" transform="scale(1,-1) translate(13.89, 78.78) rotate(189.9976685870907) translate(15.0, 0)"/>
  
    <line x1="0" y1="0" x2="72.84688279184742" y2="0" stroke-width="3" stroke="#333" opacity="1" transform="scale(1,-1) translate(13.89, 78.78) rotate(209.99778623934895) translate(15.0, 0)"/>
  
    <line x1="0" y1="0" x2="108.56104972177428" y2="0" stroke-width="3" stroke="#333" opacity="1" transform="scale(1,-1) translate(13.89, 78.78) rotate(229.99747693045737) translate(15.0, 0)"/>
  
    <line x1="0" y1="0" x2="127.5623549582831" y2="0" stroke-width="3" stroke="#333" opacity="1" transform="scale(1,-1) translate(13.89, 78.78) rotate(249.99980621204827) translate(15.0, 0)"/>
  
    <line x1="0" y1="0" x2="127.56" y2="0" stroke-width="3" stroke="#333" opacity="1" transform="scale(1,-1) translate(13.89, 78.78) rotate(270.0) translate(15.0, 0)"/>
  
    <line x1="0" y1="0" x2="108.55631382221452" y2="0" stroke-width="3" stroke="#333" opacity="1" transform="scale(1,-1) translate(13.89, 78.78) rotate(290.0004179188435) translate(15.0, 0)"/>
   
    <line x1="0" y1="0" x2="24.72585129534305" y2="0" stroke-width="3" stroke="#333" opacity="1" transform="scale(1,-1) translate(-40.0, 69.28) rotate(229.9960352556416) translate(15.0, 0)"/>
  
    <line x1="0" y1="0" x2="72.84416366522701" y2="0" stroke-width="3" stroke="#333" opacity="1" transform="scale(1,-1) translate(-40.0, 69.28) rotate(249.99690259418713) translate(15.0, 0)"/>
  
    <line x1="0" y1="0" x2="108.56" y2="0" stroke-width="3" stroke="#333" opacity="1" transform="scale(1,-1) translate(-40.0, 69.28) rotate(270.0) translate(15.0, 0)"/>
  
    <line x1="0" y1="0" x2="127.5623549582831" y2="0" stroke-width="3" stroke="#333" opacity="1" transform="scale(1,-1) translate(-40.0, 69.28) rotate(290.00019378795173) translate(15.0, 0)"/>
  
    <line x1="0" y1="0" x2="127.5630933943606" y2="0" stroke-width="3" stroke="#333" opacity="1" transform="scale(1,-1) translate(-40.0, 69.28) rotate(310.0001878948762) translate(15.0, 0)"/>
   
    <line x1="0" y1="0" x2="24.72" y2="0" stroke-width="3" stroke="#333" opacity="1" transform="scale(1,-1) translate(-75.18, 27.36) rotate(270.0) translate(15.0, 0)"/>
  
    <line x1="0" y1="0" x2="72.84416366522701" y2="0" stroke-width="3" stroke="#333" opacity="1" transform="scale(1,-1) translate(-75.18, 27.36) rotate(290.00309740581287) translate(15.0, 0)"/>
  
    <line x1="0" y1="0" x2="108.56104972177428" y2="0" stroke-width="3" stroke="#333" opacity="1" transform="scale(1,-1) translate(-75.18, 27.36) rotate(310.00252306954263) translate(15.0, 0)"/>
  
    <line x1="0" y1="0" x2="127.56782666521741" y2="0" stroke-width="3" stroke="#333" opacity="1" transform="scale(1,-1) translate(-75.18, 27.36) rotate(330.00164311372146) translate(15.0, 0)"/>
   
    <line x1="0" y1="0" x2="24.72585129534305" y2="0" stroke-width="3" stroke="#333" opacity="1" transform="scale(1,-1) translate(-75.18, -27.36) rotate(310.0039647443584) translate(15.0, 0)"/>
  
    <line x1="0" y1="0" x2="72.84688279184742" y2="0" stroke-width="3" stroke="#333" opacity="1" transform="scale(1,-1) translate(-75.18, -27.36) rotate(330.00221376065105) translate(15.0, 0)"/>
  
    <line x1="0" y1="0" x2="108.56484113944634" y2="0" stroke-width="3" stroke="#333" opacity="1" transform="scale(1,-1) translate(-75.18, -27.36) rotate(350.0006433091226) translate(15.0, 0)"/>
   
    <line x1="0" y1="0" x2="24.720947542965668" y2="0" stroke-width="3" stroke="#333" opacity="1" transform="scale(1,-1) translate(-40.0, -69.28) rotate(350.0023314129093) translate(15.0, 0)"/>
  
    <line x1="0" y1="0" x2="72.84268569032997" y2="0" stroke-width="3" stroke="#333" opacity="1" transform="scale(1,-1) translate(-40.0, -69.28) rotate(10.000879712766292) translate(15.0, 0)"/>
   
    <line x1="0" y1="0" x2="24.720943888058073" y2="0" stroke-width="3" stroke="#333" opacity="1" transform="scale(1,-1) translate(13.89, -78.78) rotate(29.999429405385822) translate(15.0, 0)"/>
 
        
        
            <circle cx="80.0" cy="0.0" r="12" fill="transparent" stroke-width="3" stroke="#333" transform="scale(1,-1)"/>
    <circle cx="80.0" cy="0.0" r="8.0" stroke-width="0" fill="transparent" transform="scale(1,-1)"/>
        <text x="80.0" y="1.0" text-anchor="middle" dominant-baseline="middle" fill="#333" font-family="Arial" font-size="12">
        58
    </text>

     <circle cx="61.28" cy="51.42" r="12" fill="transparent" stroke-width="3" stroke="#333" transform="scale(1,-1)"/>
    <circle cx="61.28" cy="51.42" r="8.0" stroke-width="0" fill="transparent" transform="scale(1,-1)"/>
        <text x="61.28" y="-50.42" text-anchor="middle" dominant-baseline="middle" fill="#333" font-family="Arial" font-size="12">
        46
    </text>

     <circle cx="13.89" cy="78.78" r="12" fill="transparent" stroke-width="3" stroke="#333" transform="scale(1,-1)"/>
    <circle cx="13.89" cy="78.78" r="8.0" stroke-width="0" fill="transparent" transform="scale(1,-1)"/>
        <text x="13.89" y="-77.78" text-anchor="middle" dominant-baseline="middle" fill="#333" font-family="Arial" font-size="12">
        29
    </text>

     <circle cx="-40.0" cy="69.28" r="12" fill="transparent" stroke-width="3" stroke="#333" transform="scale(1,-1)"/>
    <circle cx="-40.0" cy="69.28" r="8.0" stroke-width="0" fill="transparent" transform="scale(1,-1)"/>
        <text x="-40.0" y="-68.28" text-anchor="middle" dominant-baseline="middle" fill="#333" font-family="Arial" font-size="12">
        55
    </text>

     <circle cx="-75.18" cy="27.36" r="12" fill="transparent" stroke-width="3" stroke="#333" transform="scale(1,-1)"/>
    <circle cx="-75.18" cy="27.36" r="8.0" stroke-width="0" fill="transparent" transform="scale(1,-1)"/>
        <text x="-75.18" y="-26.36" text-anchor="middle" dominant-baseline="middle" fill="#333" font-family="Arial" font-size="12">
        42
    </text>

     <circle cx="-75.18" cy="-27.36" r="12" fill="transparent" stroke-width="3" stroke="#333" transform="scale(1,-1)"/>
    <circle cx="-75.18" cy="-27.36" r="8.0" stroke-width="0" fill="transparent" transform="scale(1,-1)"/>
        <text x="-75.18" y="28.36" text-anchor="middle" dominant-baseline="middle" fill="#333" font-family="Arial" font-size="12">
        77
    </text>

     <circle cx="-40.0" cy="-69.28" r="12" fill="transparent" stroke-width="3" stroke="#333" transform="scale(1,-1)"/>
    <circle cx="-40.0" cy="-69.28" r="8.0" stroke-width="0" fill="transparent" transform="scale(1,-1)"/>
        <text x="-40.0" y="70.28" text-anchor="middle" dominant-baseline="middle" fill="#333" font-family="Arial" font-size="12">
        72
    </text>

     <circle cx="13.89" cy="-78.78" r="12" fill="transparent" stroke-width="3" stroke="#333" transform="scale(1,-1)"/>
    <circle cx="13.89" cy="-78.78" r="8.0" stroke-width="0" fill="transparent" transform="scale(1,-1)"/>
        <text x="13.89" y="79.78" text-anchor="middle" dominant-baseline="middle" fill="#333" font-family="Arial" font-size="12">
        17
    </text>

     <circle cx="61.28" cy="-51.42" r="12" fill="transparent" stroke-width="3" stroke="#333" transform="scale(1,-1)"/>
    <circle cx="61.28" cy="-51.42" r="8.0" stroke-width="0" fill="transparent" transform="scale(1,-1)"/>
        <text x="61.28" y="52.42" text-anchor="middle" dominant-baseline="middle" fill="#333" font-family="Arial" font-size="12">
        37
    </text>


    </g></svg></svg><svg x="300" y="0" width="300" height="380" viewBox="0 0 300 380" style="background-color:#fff"><svg x="0" y="0" width="300" height="80" viewBox="-150 -40 300 80" style="background-color:#fff"><g><text style="font-size:30px" x="0" y="0" dominant-baseline="middle" text-anchor="middle">
    Y
</text></g></svg><svg x="0" y="80" width="300" height="300" viewBox="-100 -100 200 200" style="background-color:#fff;"><defs><style type="text/css"/></defs><g>
        
            <line x1="0" y1="0" x2="102.56304846531054" y2="0" stroke-width="3" stroke="green" opacity="1" transform="scale(1,-1) translate(-40.0, 69.28) rotate(330.00072777015305) translate(18.0, 0)"/>
     <line x1="0" y1="0" x2="102.56484113944634" y2="0" stroke-width="3" stroke="green" opacity="1" transform="scale(1,-1) translate(-75.18, 27.36) rotate(9.999356690877388) translate(18.0, 0)"/>
     <line x1="0" y1="0" x2="121.56" y2="0" stroke-width="3" stroke="green" opacity="1" transform="scale(1,-1) translate(13.89, -78.78) rotate(90.0) translate(18.0, 0)"/>
     <line x1="0" y1="0" x2="66.84268569032997" y2="0" stroke-width="3" stroke="green" opacity="1" transform="scale(1,-1) translate(61.28, 51.42) rotate(169.99912028723372) translate(18.0, 0)"/>
     <line x1="0" y1="0" x2="121.56782666521741" y2="0" stroke-width="3" stroke="green" opacity="1" transform="scale(1,-1) translate(61.28, -51.42) rotate(150.00164311372143) translate(18.0, 0)"/>
     <line x1="0" y1="0" x2="18.72585129534305" y2="0" stroke-width="3" stroke="green" opacity="1" transform="scale(1,-1) translate(-40.0, -69.28) rotate(130.0039647443584) translate(18.0, 0)"/>
     <line x1="0" y1="0" x2="102.56304846531054" y2="0" stroke-width="3" stroke="green" opacity="1" transform="scale(1,-1) translate(80.0, 0.0) rotate(209.99927222984698) translate(18.0, 0)"/>
     <line x1="0" y1="0" x2="102.55631382221452" y2="0" stroke-width="3" stroke="green" opacity="1" transform="scale(1,-1) translate(13.89, 78.78) rotate(290.0004179188435) translate(18.0, 0)"/>

            <polygon points="25,-5 15,0 25,5" fill="green" transform="scale(1,-1) translate(80.0, 0.0) rotate(150.00072777015302)"/>
     <polygon points="25,-5 15,0 25,5" fill="green" transform="scale(1,-1) translate(61.28, 51.42) rotate(189.9993566908774)"/>
     <polygon points="25,-5 15,0 25,5" fill="green" transform="scale(1,-1) translate(13.89, 78.78) rotate(270.0)"/>
     <polygon points="25,-5 15,0 25,5" fill="green" transform="scale(1,-1) translate(-40.0, 69.28) rotate(349.9991202872337)"/>
     <polygon points="25,-5 15,0 25,5" fill="green" transform="scale(1,-1) translate(-75.18, 27.36) rotate(330.00164311372146)"/>
     <polygon points="25,-5 15,0 25,5" fill="green" transform="scale(1,-1) translate(-75.18, -27.36) rotate(310.0039647443584)"/>
     <polygon points="25,-5 15,0 25,5" fill="green" transform="scale(1,-1) translate(-40.0, -69.28) rotate(29.99927222984698)"/>
     <polygon points="25,-5 15,0 25,5" fill="green" transform="scale(1,-1) translate(61.28, -51.42) rotate(110.00041791884347)"/>

            <circle cx="80.0" cy="0.0" r="12" fill="transparent" stroke-width="3" stroke="#ccc" transform="scale(1,-1)"/>
    <circle cx="80.0" cy="0.0" r="8.0" stroke-width="0" fill="#fff" transform="scale(1,-1)"/>
    
     <circle cx="61.28" cy="51.42" r="12" fill="transparent" stroke-width="3" stroke="#ccc" transform="scale(1,-1)"/>
    <circle cx="61.28" cy="51.42" r="8.0" stroke-width="0" fill="#fff" transform="scale(1,-1)"/>
    
     <circle cx="13.89" cy="78.78" r="12" fill="transparent" stroke-width="3" stroke="#ccc" transform="scale(1,-1)"/>
    <circle cx="13.89" cy="78.78" r="8.0" stroke-width="0" fill="#fff" transform="scale(1,-1)"/>
    
     <circle cx="-40.0" cy="69.28" r="12" fill="transparent" stroke-width="3" stroke="#ccc" transform="scale(1,-1)"/>
    <circle cx="-40.0" cy="69.28" r="8.0" stroke-width="0" fill="#fff" transform="scale(1,-1)"/>
    
     <circle cx="-75.18" cy="27.36" r="12" fill="transparent" stroke-width="3" stroke="#ccc" transform="scale(1,-1)"/>
    <circle cx="-75.18" cy="27.36" r="8.0" stroke-width="0" fill="#fff" transform="scale(1,-1)"/>
    
     <circle cx="-75.18" cy="-27.36" r="12" fill="transparent" stroke-width="3" stroke="#ccc" transform="scale(1,-1)"/>
    <circle cx="-75.18" cy="-27.36" r="8.0" stroke-width="0" fill="#fff" transform="scale(1,-1)"/>
    
     <circle cx="-40.0" cy="-69.28" r="12" fill="transparent" stroke-width="3" stroke="#ccc" transform="scale(1,-1)"/>
    <circle cx="-40.0" cy="-69.28" r="8.0" stroke-width="0" fill="#fff" transform="scale(1,-1)"/>
    
     <circle cx="13.89" cy="-78.78" r="12" fill="transparent" stroke-width="3" stroke="#ccc" transform="scale(1,-1)"/>
    <circle cx="13.89" cy="-78.78" r="8.0" stroke-width="0" fill="green" transform="scale(1,-1)"/>
    
     <circle cx="61.28" cy="-51.42" r="12" fill="transparent" stroke-width="3" stroke="#ccc" transform="scale(1,-1)"/>
    <circle cx="61.28" cy="-51.42" r="8.0" stroke-width="0" fill="#fff" transform="scale(1,-1)"/>
    

    </g></svg></svg><svg x="600" y="0" width="300" height="380" viewBox="0 0 300 380" style="background-color:#fff"><svg x="0" y="0" width="300" height="80" viewBox="-150 -40 300 80" style="background-color:#fff"><g><text style="font-size:30px" x="0" y="0" dominant-baseline="middle" text-anchor="middle">
    Ŷ
</text></g></svg><svg x="0" y="80" width="300" height="300" viewBox="-100 -100 200 200" style="background-color:#fff;"><defs><style type="text/css"/></defs><g>
        
            <line x1="0" y1="0" x2="102.56304846531054" y2="0" stroke-width="3" stroke="green" opacity="1" transform="scale(1,-1) translate(-40.0, 69.28) rotate(330.00072777015305) translate(18.0, 0)"/>
     <line x1="0" y1="0" x2="102.56484113944634" y2="0" stroke-width="3" stroke="green" opacity="1" transform="scale(1,-1) translate(-75.18, 27.36) rotate(9.999356690877388) translate(18.0, 0)"/>
     <line x1="0" y1="0" x2="121.56" y2="0" stroke-width="3" stroke="green" opacity="1" transform="scale(1,-1) translate(13.89, -78.78) rotate(90.0) translate(18.0, 0)"/>
     <line x1="0" y1="0" x2="66.84268569032997" y2="0" stroke-width="3" stroke="green" opacity="1" transform="scale(1,-1) translate(61.28, 51.42) rotate(169.99912028723372) translate(18.0, 0)"/>
     <line x1="0" y1="0" x2="121.56782666521741" y2="0" stroke-width="3" stroke="green" opacity="1" transform="scale(1,-1) translate(61.28, -51.42) rotate(150.00164311372143) translate(18.0, 0)"/>
     <line x1="0" y1="0" x2="18.72585129534305" y2="0" stroke-width="3" stroke="green" opacity="1" transform="scale(1,-1) translate(-40.0, -69.28) rotate(130.0039647443584) translate(18.0, 0)"/>
     <line x1="0" y1="0" x2="102.56304846531054" y2="0" stroke-width="3" stroke="green" opacity="1" transform="scale(1,-1) translate(80.0, 0.0) rotate(209.99927222984698) translate(18.0, 0)"/>
     <line x1="0" y1="0" x2="102.55631382221452" y2="0" stroke-width="3" stroke="green" opacity="1" transform="scale(1,-1) translate(13.89, 78.78) rotate(290.0004179188435) translate(18.0, 0)"/>

            <polygon points="25,-5 15,0 25,5" fill="green" transform="scale(1,-1) translate(80.0, 0.0) rotate(150.00072777015302)"/>
     <polygon points="25,-5 15,0 25,5" fill="green" transform="scale(1,-1) translate(61.28, 51.42) rotate(189.9993566908774)"/>
     <polygon points="25,-5 15,0 25,5" fill="green" transform="scale(1,-1) translate(13.89, 78.78) rotate(270.0)"/>
     <polygon points="25,-5 15,0 25,5" fill="green" transform="scale(1,-1) translate(-40.0, 69.28) rotate(349.9991202872337)"/>
     <polygon points="25,-5 15,0 25,5" fill="green" transform="scale(1,-1) translate(-75.18, 27.36) rotate(330.00164311372146)"/>
     <polygon points="25,-5 15,0 25,5" fill="green" transform="scale(1,-1) translate(-75.18, -27.36) rotate(310.0039647443584)"/>
     <polygon points="25,-5 15,0 25,5" fill="green" transform="scale(1,-1) translate(-40.0, -69.28) rotate(29.99927222984698)"/>
     <polygon points="25,-5 15,0 25,5" fill="green" transform="scale(1,-1) translate(61.28, -51.42) rotate(110.00041791884347)"/>

            <circle cx="80.0" cy="0.0" r="12" fill="transparent" stroke-width="3" stroke="#ccc" transform="scale(1,-1)"/>
    <circle cx="80.0" cy="0.0" r="8.0" stroke-width="0" fill="#fff" transform="scale(1,-1)"/>
    
     <circle cx="61.28" cy="51.42" r="12" fill="transparent" stroke-width="3" stroke="#ccc" transform="scale(1,-1)"/>
    <circle cx="61.28" cy="51.42" r="8.0" stroke-width="0" fill="#fff" transform="scale(1,-1)"/>
    
     <circle cx="13.89" cy="78.78" r="12" fill="transparent" stroke-width="3" stroke="#ccc" transform="scale(1,-1)"/>
    <circle cx="13.89" cy="78.78" r="8.0" stroke-width="0" fill="#fff" transform="scale(1,-1)"/>
    
     <circle cx="-40.0" cy="69.28" r="12" fill="transparent" stroke-width="3" stroke="#ccc" transform="scale(1,-1)"/>
    <circle cx="-40.0" cy="69.28" r="8.0" stroke-width="0" fill="#fff" transform="scale(1,-1)"/>
    
     <circle cx="-75.18" cy="27.36" r="12" fill="transparent" stroke-width="3" stroke="#ccc" transform="scale(1,-1)"/>
    <circle cx="-75.18" cy="27.36" r="8.0" stroke-width="0" fill="#fff" transform="scale(1,-1)"/>
    
     <circle cx="-75.18" cy="-27.36" r="12" fill="transparent" stroke-width="3" stroke="#ccc" transform="scale(1,-1)"/>
    <circle cx="-75.18" cy="-27.36" r="8.0" stroke-width="0" fill="#fff" transform="scale(1,-1)"/>
    
     <circle cx="-40.0" cy="-69.28" r="12" fill="transparent" stroke-width="3" stroke="#ccc" transform="scale(1,-1)"/>
    <circle cx="-40.0" cy="-69.28" r="8.0" stroke-width="0" fill="#fff" transform="scale(1,-1)"/>
    
     <circle cx="13.89" cy="-78.78" r="12" fill="transparent" stroke-width="3" stroke="#ccc" transform="scale(1,-1)"/>
    <circle cx="13.89" cy="-78.78" r="8.0" stroke-width="0" fill="green" transform="scale(1,-1)"/>
    
     <circle cx="61.28" cy="-51.42" r="12" fill="transparent" stroke-width="3" stroke="#ccc" transform="scale(1,-1)"/>
    <circle cx="61.28" cy="-51.42" r="8.0" stroke-width="0" fill="#fff" transform="scale(1,-1)"/>
    

    </g></svg></svg></svg>
